<svg width="68" height="68" viewBox="0 0 68 68" fill="none" xmlns="http://www.w3.org/2000/svg">
<path d="M3.78865 34C3.78865 17.3146 17.3146 3.78865 34 3.78865C50.6854 3.78865 64.2114 17.3146 64.2114 34C64.2114 50.6854 50.6854 64.2114 34 64.2114C17.3146 64.2114 3.78865 50.6854 3.78865 34ZM33.6147 26.217C33.6514 26.2566 33.6959 26.2881 33.7453 26.3097C33.7948 26.3313 33.8482 26.3424 33.9021 26.3424C33.9561 26.3424 34.0094 26.3313 34.0589 26.3097C34.1083 26.2881 34.1528 26.2566 34.1895 26.217C36.8191 23.4185 39.2391 20.6263 40.3882 18.6864C42.4166 15.2453 42.8019 13.2035 41.9972 10.8581C41.4493 9.25586 39.9288 7.63389 38.3132 7.63389C36.2242 7.63389 34.0606 10.3372 33.9053 14.5426C33.7436 10.3646 30.897 7.63344 28.8085 7.63344C27.1928 7.63344 25.6714 9.25586 25.124 10.8581C24.3198 13.2039 24.6983 15.2453 26.733 18.6864C27.9158 20.6263 30.9446 23.4185 33.6147 26.217ZM21.44 26.2844C21.832 30.016 25.631 34.2344 29.2679 35.0319C30.6635 35.372 31.9383 36.0901 32.9524 37.1074C33.2209 37.4083 33.4629 37.7316 33.6753 38.0743C33.7158 38.1488 33.8177 38.3109 33.8716 38.2566C33.9255 38.3105 34.0202 38.1488 34.0611 38.0743C34.2734 37.7315 34.5153 37.408 34.784 37.1074C35.7982 36.0903 37.073 35.3723 38.4685 35.0324C42.1121 34.2344 45.8779 30.0165 46.2969 26.2848C46.3732 25.0553 46.1866 23.8236 45.7494 22.6718C45.3122 21.5201 44.6345 20.4748 43.7615 19.6056C43.4292 19.3542 43.2334 19.9029 42.9285 20.757C42.5455 21.8311 41.99 23.388 40.7735 24.446C39.2189 25.7976 38.2386 25.4667 36.6296 26.7442C35.3398 27.8047 34.3804 29.2122 33.8648 30.8005C33.3522 29.2125 32.395 27.8048 31.1068 26.7442C29.4978 25.4667 28.5112 25.7846 26.9629 24.446C25.7437 23.3884 25.1887 21.8325 24.8052 20.7592C24.4998 19.9034 24.3036 19.3537 23.9682 19.6056C23.0975 20.4762 22.4218 21.5219 21.9859 22.6734C21.5501 23.8249 21.364 25.0559 21.44 26.2848V26.2844ZM56.4638 23.0602C53.7597 20.9375 50.0078 20.4238 49.5552 21.2213C49.345 21.5927 49.9243 22.1042 50.7986 22.8761C52.1215 24.0445 54.1202 25.8097 55.0848 28.5898C56.9735 34.0606 53.5311 39.707 53.0124 40.5571L53.0093 40.5616C50.9342 43.942 46.9255 47.64 43.3358 48.3903C41.52 48.7117 39.7937 49.4168 38.2723 50.4587C37.7918 50.8075 37.3399 51.194 36.9206 51.6145C35.6251 52.8435 34.6064 54.3346 33.9326 55.9883C33.3398 54.3387 32.3832 52.8438 31.1337 51.6145C30.7145 51.194 30.2625 50.8075 29.782 50.4587C28.2606 49.4168 26.5343 48.7117 24.7185 48.3903C21.0677 47.64 17.0999 43.9555 14.9907 40.562L14.9876 40.5566C14.4694 39.707 11.0265 34.0606 12.9152 28.5898C13.8771 25.8187 15.8758 24.0557 17.2009 22.8869C18.0833 22.1086 18.6667 21.5945 18.4448 21.2213C17.9922 20.4238 14.274 20.9375 11.5362 23.0602C7.09503 26.5076 6.28359 33.3623 7.3923 38.2907C7.96938 40.7679 9.04189 43.1026 10.5452 45.1543C12.0486 47.206 13.9517 48.9321 16.1398 50.2288C20.7839 52.933 23.8869 51.6487 28.5786 55.0695C30.6464 56.5946 32.3905 58.5154 33.7095 60.7204C33.7291 60.754 33.7573 60.7819 33.7911 60.8013C33.8249 60.8207 33.8632 60.8309 33.9021 60.8309C33.9411 60.8309 33.9793 60.8207 34.0131 60.8013C34.0469 60.7819 34.0751 60.754 34.0947 60.7204C35.494 58.5188 37.2967 56.6014 39.4079 55.0691C44.0996 51.6487 47.2026 52.906 51.8467 50.2288C54.0374 48.9335 55.943 47.2079 57.4487 45.1562C58.9545 43.1044 60.029 40.769 60.6077 38.2907C61.7169 33.3623 60.9054 26.5076 56.4638 23.0602ZM18.6747 25.1353C17.7555 25.1353 16.9782 27.8395 16.8363 28.3599C16.2849 30.4606 16.2476 32.6632 16.7277 34.7813C17.2078 36.8994 18.1911 38.8707 19.5944 40.5283C22.048 43.2321 25.7796 44.7669 26.733 45.1316C27.6823 45.4445 28.6065 45.8288 29.4978 46.2811C31.1197 47.182 32.5357 48.4116 33.6551 49.8911C33.6849 49.9279 33.7225 49.9576 33.7653 49.978C33.808 49.9985 33.8548 50.0091 33.9021 50.0091C33.9495 50.0091 33.9962 49.9985 34.039 49.978C34.0817 49.9576 34.1193 49.9279 34.1491 49.8911C35.3558 48.4203 36.8336 47.1946 38.5022 46.2807C39.3935 45.8285 40.3178 45.4443 41.267 45.1316C42.2204 44.7669 45.952 43.2523 48.406 40.5283C49.8093 38.8707 50.7926 36.8994 51.2727 34.7813C51.7528 32.6632 51.7156 30.4606 51.1641 28.3599C51.0218 27.8192 50.2445 25.1016 49.3253 25.1357C47.9736 25.1829 47.9193 31.1723 44.9515 34.8025C43.6458 36.3545 42.0897 37.6774 40.3478 38.7164C38.4483 39.7914 37.38 39.8588 36.2039 40.9944C34.956 42.2371 34.1487 43.8539 33.9053 45.5981C33.7388 43.8703 32.9958 42.2488 31.7961 40.9944C30.6065 39.8318 29.5521 39.764 27.6522 38.6895C25.9103 37.6505 24.3542 36.3276 23.0485 34.7755C20.0812 31.1723 20.0336 25.1829 18.6747 25.1353ZM67.9937 34.67L67.9856 35.0095L67.9744 35.349L67.9596 35.6884L67.9416 36.0279L67.9205 36.367L67.8958 36.706L67.868 37.045L67.8366 37.3836L67.8015 37.7217L67.7638 38.0594L67.722 38.3971L67.6771 38.7339L67.6286 39.0707L67.577 39.407L67.5218 39.7425L67.4634 40.0775L67.401 40.412L67.3359 40.7457L67.2667 41.0789L67.1948 41.4112L67.119 41.743L67.0399 42.074L66.9573 42.404L66.872 42.7332L66.7826 43.0614L66.6901 43.3888L66.5945 43.7153L66.4957 44.0404L66.3928 44.3646L66.2873 44.6879L66.1786 45.0103L66.0664 45.3309L65.9514 45.6511L65.8329 45.9699L65.7116 46.2874L65.5868 46.6035L65.4588 46.9183L65.3281 47.2322L65.2509 47.4127L65.1162 47.7226L64.9774 48.0329L64.836 48.3418L64.6914 48.6494L64.5432 48.9557L64.3923 49.2601L64.2387 49.5633L64.0816 49.865L63.9217 50.165L63.7587 50.4636L63.5926 50.76L63.4237 51.0555L63.2522 51.3487L63.077 51.6406L62.8992 51.9302L62.7183 52.2185L62.5341 52.5046L62.3478 52.7888L62.1583 53.0717L61.9661 53.3519L61.7707 53.6303L61.5727 53.9069L61.372 54.1813L61.1681 54.4539L60.9615 54.7242L60.7527 54.9923L60.5408 55.2586L60.3266 55.5222L60.1097 55.784L59.8897 56.0435L59.6678 56.3013L59.4433 56.5563L59.2161 56.8092L58.9866 57.0597L58.7545 57.3081L58.5201 57.5541L58.2834 57.7975L58.0445 58.0391L57.9053 58.1774L57.6637 58.4141L57.419 58.6494L57.172 58.8829L56.9219 59.1133L56.6704 59.3414L56.4162 59.5672L56.1598 59.7904L55.9012 60.0109L55.6407 60.2292L55.3776 60.4447L55.1126 60.6576L54.8455 60.8682L54.576 61.0756L54.3044 61.2804L54.0309 61.4825L53.7552 61.6818L53.4776 61.8785L53.1979 62.0716L52.9163 62.2629L52.6334 62.4506L52.3478 62.6356L52.0604 62.8179L51.7713 62.9976L51.4807 63.1736L51.1879 63.3469L50.8933 63.5171L50.597 63.6842L50.2997 63.849L50.0002 64.0102L49.6993 64.1682L49.3967 64.3236L49.0926 64.4758L48.7873 64.6249L48.4806 64.7709L48.1721 64.9141L47.8622 65.0542L47.5515 65.1912L47.239 65.325L46.9305 65.4539L46.6161 65.5818L46.2996 65.7062L45.9821 65.8279L45.6637 65.9465L45.344 66.0619L45.0229 66.1741L44.7009 66.2833L44.3776 66.3888L44.0534 66.4912L43.7283 66.5904L43.4018 66.6865L43.0745 66.779L42.7466 66.8684L42.417 66.9537L42.087 67.0368L41.7565 67.1158L41.4246 67.1917L41.0923 67.2636L40.7591 67.3327L40.4255 67.3987L40.0909 67.4607L39.756 67.5191L39.4205 67.5748L39.0842 67.6264L38.7474 67.6749L38.4106 67.7202L38.0729 67.762L37.7352 67.8002L37.3966 67.8352L37.0585 67.8666L36.7195 67.8949L36.3804 67.9196L36.0414 67.9412L35.7019 67.9591L35.3624 67.974L35.0229 67.9852L34.683 67.9933L34.3435 67.9982L34.004 68L33.6695 67.9987L33.33 67.9937L32.9905 67.9856L32.651 67.9744L32.3116 67.9596L31.9721 67.9416L31.633 67.9205L31.294 67.8958L30.9554 67.868L30.6168 67.8366L30.2783 67.8015L29.9406 67.7638L29.6029 67.722L29.2661 67.6771L28.9293 67.6286L28.5934 67.577L28.2575 67.5218L27.9225 67.4634L27.588 67.401L27.2543 67.3359L26.9211 67.2667L26.5888 67.1948L26.257 67.119L25.926 67.0399L25.5964 66.9573L25.2668 66.872L24.939 66.7822L24.6112 66.6901L24.2852 66.5945L23.9596 66.4957L23.6354 66.3928L23.3121 66.2873L22.9901 66.1786L22.6691 66.0664L22.3489 65.9514L22.0301 65.8329L21.713 65.7116L21.3969 65.5868L21.0817 65.4588L20.7682 65.3281L20.5877 65.2509L20.2774 65.1162L19.9676 64.9774L19.6582 64.836L19.3506 64.6909L19.0448 64.5432L18.7399 64.3923L18.4367 64.2387L18.1354 64.0816L17.835 63.9217L17.5368 63.7587L17.24 63.5926L16.9445 63.4237L16.6513 63.2517L16.3594 63.077L16.0698 62.8992L15.7815 62.7183L15.4955 62.5341L15.2112 62.3478L14.9283 62.1583L14.6481 61.9661L14.3697 61.7707L14.0931 61.5727L13.8187 61.3715L13.5461 61.1681L13.2758 60.9615L13.0077 60.7527L12.7414 60.5408L12.4778 60.3266L12.216 60.1097L11.9565 59.8897L11.6992 59.6678L11.4441 59.4433L11.1913 59.2161L10.9407 58.9866L10.6924 58.7545L10.4463 58.5201L10.2025 58.2834L9.96133 58.0445L9.82257 57.9053L9.58592 57.6637L9.35062 57.4185L9.11756 57.1716L8.8872 56.9219L8.65863 56.6704L8.4332 56.4162L8.20957 56.1598L7.98909 55.9012L7.77085 55.6407L7.55531 55.3776L7.34245 55.1126L7.1323 54.8455L6.92483 54.576L6.71961 54.3044L6.51754 54.0304L6.31816 53.7552L6.12193 53.4776L5.92794 53.1979L5.73709 52.9168L5.54939 52.633L5.36438 52.3478L5.18206 52.0604L5.00289 51.7713L4.82642 51.4803L4.65353 51.1879L4.48289 50.8933L4.31584 50.597L4.15149 50.2997L3.98983 50.0002L3.83176 49.6993L3.67639 49.3967L3.52416 49.0926L3.37507 48.7873L3.22913 48.4801L3.08589 48.1721L2.94578 47.8622L2.80882 47.5515L2.67501 47.239L2.54613 46.9305L2.4186 46.6161L2.29376 46.2996L2.17206 45.9821L2.05352 45.6637L1.93811 45.344L1.82584 45.0229L1.71717 44.7009L1.6112 44.3776L1.50882 44.0534L1.40957 43.7278L1.31393 43.4018L1.22097 43.0744L1.13206 42.7466L1.04584 42.417L0.963665 42.087L0.884182 41.7565L0.808741 41.4246L0.735993 41.0923L0.667288 40.7591L0.601729 40.4255L0.539307 40.0909L0.480935 39.756L0.425249 39.4201L0.373612 39.0842L0.325114 38.7474L0.280206 38.4106L0.237997 38.0729L0.199825 37.7352L0.164797 37.3966L0.133367 37.058L0.105528 36.7195L0.0803808 36.3804L0.0592766 36.0414L0.0413107 35.7019L0.0264898 35.3624L0.014814 35.0229L0.00673551 34.683L0.00179522 34.3435L0 34.004L0.00179522 33.6695L0.00628328 33.33L0.0143686 32.9905L0.0255922 32.651L0.0404131 32.3116L0.0583722 31.9721L0.0794832 31.633L0.104178 31.294L0.13247 30.9554L0.1639 30.6168L0.198482 30.2783L0.236647 29.9406L0.277965 29.6029L0.322866 29.2661L0.371364 28.9293L0.423453 28.5934L0.478242 28.2575L0.537066 27.9225L0.599036 27.588L0.664596 27.2543L0.733301 26.9211L0.805596 26.5888L0.881036 26.257L0.960074 25.926L1.0427 25.596L1.12802 25.2668L1.21783 24.939L1.30988 24.6112L1.40553 24.2852L1.50477 23.9596L1.60716 23.6354L1.71268 23.3121L1.82136 22.9901L1.93362 22.6691L2.04903 22.3489L2.16712 22.0301L2.28882 21.713L2.41366 21.3969L2.54119 21.0817L2.67186 20.7682L2.7491 20.5873L2.88381 20.2774L3.02302 19.9676L3.16447 19.6582L3.30907 19.3506L3.4568 19.0448L3.60769 18.7399L3.76171 18.4367L3.91843 18.1354L4.07829 17.835L4.2413 17.5368L4.40745 17.24L4.57629 16.9445L4.74828 16.6513L4.92341 16.3594L5.10078 16.0698L5.28175 15.7815L5.46586 15.4955L5.65222 15.2112L5.84172 14.9283L6.03437 14.6481L6.22925 14.3697L6.42773 14.0931L6.62846 13.8187L6.83188 13.5461L7.03845 13.2758L7.24725 13.0077L7.45921 12.7414L7.67341 12.4778L7.89074 12.216L8.11033 11.9565L8.33216 11.6992L8.55669 11.4441L8.78391 11.1913L9.01383 10.9407L9.24553 10.6924L9.47994 10.4463L9.7166 10.2025L9.95594 9.96133L10.0951 9.82257L10.3363 9.58637L10.5815 9.35062L10.8284 9.11756L11.0781 8.8872L11.3296 8.65863L11.5842 8.4332L11.8402 8.21002L12.0988 7.98909L12.3593 7.77085L12.6224 7.55531L12.8874 7.34245L13.155 7.1323L13.4244 6.92483L13.6956 6.71961L13.9696 6.51754L14.2448 6.31816L14.5224 6.12193L14.8021 5.92839L15.0837 5.73754L15.367 5.54939L15.6526 5.36438L15.94 5.18206L16.2288 5.00289L16.5197 4.82642L16.8125 4.65353L17.1067 4.48289L17.403 4.31584L17.7007 4.15149L17.9998 3.98983L18.3007 3.83176L18.6033 3.67639L18.9073 3.52416L19.2127 3.37507L19.5199 3.22913L19.8279 3.08589L20.1378 2.94578L20.4489 2.80882L20.761 2.67501L21.0695 2.54613L21.3843 2.4186L21.7005 2.29376L22.0179 2.17206L22.3368 2.05352L22.656 1.93811L22.9771 1.82584L23.2991 1.71717L23.6224 1.6112L23.9466 1.50882L24.2722 1.40957L24.5982 1.31393L24.926 1.22097L25.2538 1.13206L25.583 1.04584L25.913 0.963665L26.244 0.884182L26.5754 0.808741L26.9077 0.735993L27.2409 0.667288L27.575 0.601729L27.9091 0.539307L28.244 0.480935L28.5799 0.425249L28.9158 0.373612L29.2526 0.325114L29.5894 0.280206L29.9271 0.237997L30.2652 0.199825L30.6034 0.164797L30.942 0.133367L31.2805 0.105528L31.6196 0.0803808L31.9591 0.0592766L32.2981 0.0413107L32.638 0.0264898L32.9771 0.014814L33.317 0.00673551L33.6565 0.00179522L33.9964 0L34.3305 0.00179522L34.67 0.00628328L35.0095 0.0143686L35.3494 0.0260444L35.6884 0.0404131L36.0279 0.0583722L36.367 0.0794832L36.7064 0.104178L37.045 0.13247L37.3836 0.1639L37.7217 0.198482L38.0594 0.236647L38.3971 0.277965L38.7339 0.322866L39.0707 0.371364L39.407 0.423453L39.7425 0.478687L40.0775 0.537066L40.412 0.599036L40.7457 0.664596L41.0789 0.733301L41.4112 0.805596L41.743 0.881489L42.074 0.96052L42.404 1.0427L42.7332 1.12847L43.0614 1.21738L43.3892 1.30988L43.7153 1.40553L44.0404 1.50477L44.3646 1.60716L44.6879 1.71268L45.0103 1.82136L45.3309 1.93362L45.6511 2.04903L45.9699 2.16712L46.2874 2.28882L46.6035 2.41366L46.9183 2.54119L47.2322 2.67186L47.4127 2.7491L47.7226 2.88381L48.0329 3.02302L48.3418 3.16447L48.6494 3.30907L48.9557 3.4568L49.2601 3.60769L49.5633 3.76171L49.865 3.91843L50.165 4.07829L50.4636 4.2413L50.76 4.40745L51.0555 4.57629L51.3491 4.74828L51.641 4.92341L51.9307 5.10124L52.2185 5.28175L52.505 5.46586L52.7893 5.65222L53.0717 5.84172L53.3519 6.03437L53.6303 6.2297L53.9069 6.42729L54.1813 6.62846L54.4539 6.83188L54.7242 7.03845L54.9923 7.24725L55.2586 7.45921L55.5226 7.67341L55.784 7.89074L56.0435 8.11033L56.3013 8.33216L56.5563 8.55669L56.8092 8.78391L57.0597 9.01383L57.3081 9.24553L57.5541 9.47994L57.7975 9.7166L58.0391 9.95594L58.1774 10.0951L58.4141 10.3363L58.6494 10.5815L58.8829 10.8284L59.1133 11.0781L59.3414 11.3296L59.5672 11.5842L59.7904 11.8402L60.0109 12.0988L60.2292 12.3593L60.4447 12.6224L60.658 12.8874L60.8682 13.155L61.0756 13.4244L61.2804 13.6956L61.4825 13.9696L61.6818 14.2448L61.8785 14.5224L62.0716 14.8021L62.2629 15.0837L62.4511 15.367L62.6356 15.6526L62.8179 15.94L62.9976 16.2288L63.1736 16.5197L63.3469 16.8125L63.5176 17.1067L63.6846 17.403L63.849 17.7007L64.0102 17.9998L64.1682 18.3007L64.3236 18.6033L64.4758 18.9073L64.6249 19.2127L64.7713 19.5199L64.9141 19.8279L65.0542 20.1378L65.1912 20.4489L65.325 20.761L65.4539 21.0695L65.5818 21.3843L65.7062 21.7005L65.8279 22.0179L65.9469 22.3368L66.0623 22.656L66.1746 22.9771L66.2833 23.2991L66.3888 23.6224L66.4912 23.9466L66.5909 24.2722L66.6865 24.5982L66.779 24.926L66.8684 25.2538L66.9537 25.583L67.0368 25.913L67.1158 26.244L67.1917 26.5754L67.2636 26.9077L67.3332 27.2409L67.3987 27.5745L67.4607 27.9091L67.5191 28.244L67.5748 28.5799L67.6268 28.9158L67.6753 29.2526L67.7202 29.5894L67.762 29.9271L67.8002 30.2652L67.8352 30.6034L67.8666 30.942L67.8949 31.2805L67.9196 31.6196L67.9412 31.9591L67.9591 32.2981L67.974 32.638L67.9852 32.9771L67.9933 33.317L67.9982 33.6565L68 33.9964V34.004L67.9987 34.3305L67.9937 34.67ZM66.4032 33.6794L66.3987 33.3552L66.391 33.0309L66.3803 32.7067L66.3663 32.383L66.3493 32.0592L66.3286 31.7359L66.3053 31.4126L66.2783 31.0892L66.2482 30.7668L66.215 30.4444L66.1791 30.1224L66.1391 29.8009L66.0965 29.4798L66.0502 29.1592L66.0008 28.839L65.9483 28.5193L65.8922 28.2005L65.8333 27.8817L65.7705 27.5642L65.7054 27.2472L65.6366 26.9306L65.5648 26.6149L65.4889 26.2997L65.4108 25.9853L65.329 25.6723L65.2437 25.3598L65.1557 25.0477L65.0646 24.7369L64.9702 24.4271L64.8728 24.1182L64.7722 23.8101L64.6685 23.5034L64.5616 23.1971L64.4516 22.8922L64.3384 22.5887L64.2226 22.286L64.1036 21.9843L63.9819 21.6838L63.8588 21.3897L63.7313 21.0915L63.6006 20.7952L63.4673 20.4992L63.3307 20.2051L63.1915 19.9128L63.0492 19.6213L62.9046 19.3317L62.7564 19.0434L62.6055 18.756L62.452 18.4713L62.2957 18.1875L62.1363 17.9055L61.9746 17.6249L61.8089 17.3464L61.6414 17.0689L61.4708 16.7937L61.2974 16.5202L61.1214 16.2485L60.9422 15.9782L60.7608 15.7101L60.5767 15.4438L60.389 15.1793L60.1995 14.9171L60.0069 14.6566L59.812 14.3975L59.6144 14.1411L59.4141 13.8865L59.2112 13.6337L59.0055 13.3831L58.798 13.1343L58.5874 12.8878L58.3746 12.6435L58.159 12.401L57.9417 12.1608L57.7216 11.9228L57.4994 11.6866L57.2748 11.4531L57.0463 11.2196L56.916 11.0893L56.6861 10.8608L56.4535 10.6349L56.2187 10.4113L55.982 10.1899L55.7427 9.97076L55.502 9.75386L55.2586 9.53967L55.0134 9.32772L54.7664 9.11846L54.5163 8.91189L54.2648 8.70713L54.0116 8.50505L53.7561 8.30612L53.4988 8.10943L53.2392 7.91545L52.9778 7.72415L52.7147 7.53554L52.4498 7.34964L52.1826 7.16643L51.9131 6.9859L51.6428 6.80808L51.3702 6.63295L51.0963 6.46051L50.8197 6.29122L50.5422 6.12418L50.2624 5.96072L49.9818 5.79906L49.6989 5.64145L49.4146 5.48607L49.1286 5.3334L48.8412 5.18386L48.5524 5.03702L48.2619 4.89333L47.97 4.75232L47.6768 4.61401L47.3822 4.47929L47.0858 4.34638L46.7872 4.21615L46.6179 4.14431L46.3184 4.01946L46.018 3.89733L45.7167 3.77833L45.414 3.66247L45.11 3.54931L44.8051 3.43974L44.4997 3.33287L44.1926 3.22913L43.8845 3.1281L43.5756 3.03065L43.2657 2.93635L42.955 2.8452L42.6434 2.75673L42.3308 2.67186L42.0174 2.59013L41.703 2.51155L41.3883 2.43656L41.0726 2.36471L40.756 2.29556L40.439 2.23L40.121 2.16712L39.8022 2.10875L39.4834 2.05262L39.1637 1.99963L38.8439 1.95024L38.5233 1.90443L38.2018 1.86132L37.8803 1.8218L37.5583 1.78543L37.2359 1.7522L36.9135 1.72211L36.5901 1.69517L36.2668 1.67182L35.9435 1.65117L35.6202 1.6341L35.296 1.62018L34.9718 1.6094L34.6475 1.60132L34.3229 1.59683L34.004 1.59548L33.6794 1.59683L33.3552 1.60132L33.0309 1.60895L32.7067 1.62018L32.383 1.63365L32.0592 1.65117L31.7359 1.67137L31.4126 1.69517L31.0892 1.72211L30.7668 1.75175L30.4444 1.78498L30.1224 1.8209L29.8009 1.86132L29.4798 1.90398L29.1592 1.94978L28.839 1.99918L28.5198 2.05217L28.2009 2.10785L27.8821 2.16712L27.5642 2.22909L27.2472 2.29466L26.9306 2.36381L26.6149 2.43566L26.3001 2.5111L25.9858 2.58968L25.6723 2.67141L25.3598 2.75628L25.0481 2.8443L24.7369 2.93546L24.4271 3.02975L24.1182 3.1272L23.8101 3.22824L23.5034 3.33152L23.1976 3.43884L22.8922 3.54841L22.5887 3.66157L22.286 3.77743L21.9843 3.89643L21.6838 4.01857L21.3897 4.14116L21.0915 4.26914L20.7952 4.39936L20.4992 4.53318L20.2051 4.66924L19.9128 4.80845L19.6213 4.9508L19.3317 5.09584L19.0434 5.24403L18.756 5.39447L18.4713 5.54804L18.1875 5.70431L17.9055 5.86373L17.6249 6.02583L17.3464 6.19109L17.0694 6.35858L16.7937 6.52922L16.5202 6.70255L16.2485 6.87903L15.9786 7.05775L15.7101 7.23962L15.4438 7.42373L15.1793 7.61098L14.9171 7.80094L14.6566 7.99313L14.398 8.18847L14.1411 8.38605L13.8865 8.58633L13.6337 8.7893L13.3831 8.99452L13.1343 9.20243L12.8878 9.41259L12.6435 9.62544L12.401 9.84098L12.1608 10.0583L11.9228 10.2784L11.6866 10.5011L11.4531 10.7256L11.2196 10.9537L11.0893 11.084L10.8608 11.3143L10.6349 11.5465L10.4113 11.7813L10.1899 12.0184L9.97076 12.2573L9.75386 12.4985L9.53967 12.7414L9.32772 12.987L9.11846 13.234L8.91189 13.4837L8.70713 13.7352L8.5055 13.9884L8.30612 14.2444L8.10943 14.5012L7.91545 14.7608L7.72415 15.0222L7.53554 15.2853L7.34964 15.5507L7.16643 15.8179L6.9859 16.0868L6.80808 16.3572L6.63295 16.6298L6.46051 16.9041L6.29122 17.1803L6.12418 17.4578L5.96072 17.7376L5.79951 18.0187L5.64145 18.3016L5.48607 18.5858L5.3334 18.8714L5.18386 19.1588L5.03702 19.448L4.89333 19.7381L4.75232 20.03L4.61401 20.3237L4.47929 20.6182L4.34682 20.9142L4.2166 21.2128L4.14431 21.3825L4.01946 21.6816L3.89733 21.982L3.77833 22.2833L3.66247 22.586L3.54976 22.89L3.43974 23.1949L3.33287 23.5003L3.22913 23.8074L3.12855 24.1155L3.03065 24.4244L2.93635 24.7343L2.8452 25.045L2.75718 25.3566L2.67186 25.6692L2.59013 25.9826L2.512 26.297L2.43656 26.6122L2.36471 26.9279L2.29556 27.244L2.23 27.5615L2.16712 27.879L2.10875 28.1978L2.05262 28.5166L1.99963 28.8363L1.95024 29.1565L1.90443 29.4771L1.86132 29.7982L1.8218 30.1197L1.78543 30.4417L1.7522 30.7641L1.72211 31.087L1.69517 31.4099L1.67182 31.7332L1.65117 32.0565L1.6341 32.3803L1.62018 32.7045L1.6094 33.0283L1.60132 33.3529L1.59683 33.6771L1.59548 33.996L1.59683 34.3206L1.60132 34.6448L1.60895 34.9691L1.62018 35.2933L1.63365 35.617L1.65161 35.9408L1.67137 36.2641L1.69517 36.5874L1.72211 36.9108L1.75175 37.2332L1.78498 37.5556L1.82136 37.8776L1.86087 38.1991L1.90398 38.5202L1.95024 38.8408L1.99963 39.161L2.05217 39.4807L2.10785 39.7995L2.16712 40.1183L2.22909 40.4358L2.2951 40.7533L2.36381 41.0694L2.43566 41.3851L2.5111 41.7003L2.58968 42.0147L2.67141 42.3277L2.75628 42.6407L2.8443 42.9523L2.93546 43.2631L3.02975 43.5729L3.12765 43.8819L3.22824 44.1899L3.33152 44.4971L3.43884 44.8024L3.54886 45.1078L3.66157 45.4113L3.77743 45.714L3.89643 46.0157L4.01857 46.3166L4.14116 46.6107L4.26914 46.9085L4.39936 47.2053L4.53318 47.5008L4.66924 47.7949L4.80845 48.0877L4.9508 48.3787L5.09584 48.6683L5.24403 48.957L5.39447 49.2435L5.54804 49.5291L5.70476 49.8125L5.86373 50.0949L6.02583 50.3751L6.19109 50.6536L6.35903 50.9311L6.52967 51.2063L6.70301 51.4803L6.87903 51.7519L7.05775 52.0218L7.23962 52.2899L7.42373 52.5562L7.61098 52.8207L7.80094 53.0834L7.99313 53.3438L8.18847 53.6025L8.38605 53.8589L8.58633 54.114L8.7893 54.3663L8.99452 54.6169L9.20243 54.8657L9.41259 55.1126L9.62544 55.3565L9.84098 55.599L10.0588 55.8392L10.2788 56.0772L10.5011 56.3134L10.7256 56.5469L10.9537 56.7804L11.084 56.9106L11.3143 57.1397L11.5469 57.3655L11.7813 57.5892L12.0184 57.8105L12.2573 58.0292L12.4985 58.2461L12.7414 58.4603L12.987 58.6723L13.234 58.8815L13.4837 59.0881L13.7352 59.2929L13.9884 59.4949L14.2444 59.6939L14.5017 59.8906L14.7608 60.0846L15.0222 60.2759L15.2857 60.4645L15.5507 60.6508L15.8179 60.834L16.0868 61.0145L16.3576 61.1924L16.6298 61.3675L16.9041 61.5395L17.1803 61.7092L17.4583 61.8754L17.7376 62.0397L18.0187 62.2005L18.3016 62.359L18.5858 62.5144L18.8714 62.6666L19.1588 62.8161L19.448 62.963L19.7385 63.1067L20.0304 63.2481L20.3237 63.386L20.6182 63.5212L20.9142 63.6536L21.2128 63.7838L21.3825 63.8557L21.6816 63.9805L21.982 64.1027L22.2833 64.2217L22.5864 64.3375L22.89 64.4507L23.1949 64.5603L23.5007 64.6671L23.8079 64.7713L24.1155 64.8719L24.4244 64.9694L24.7343 65.0636L25.045 65.1553L25.3566 65.2433L25.6692 65.3286L25.9826 65.4099L26.297 65.4885L26.6122 65.5634L26.9279 65.6357L27.2445 65.7044L27.5615 65.77L27.8794 65.8329L28.1978 65.8917L28.5166 65.9478L28.8363 66.0004L29.1565 66.0498L29.4771 66.096L29.7982 66.1387L30.1197 66.1786L30.4417 66.2146L30.7641 66.2482L31.087 66.2779L31.4099 66.3048L31.7332 66.3286L32.0565 66.3488L32.3803 66.3659L32.7045 66.3798L33.0283 66.391L33.3529 66.3987L33.6771 66.4032L33.996 66.405L34.3206 66.4032L34.6453 66.3987L34.9691 66.391L35.2933 66.3798L35.617 66.3663L35.9408 66.3488L36.2641 66.3286L36.5874 66.3053L36.9108 66.2783L37.2332 66.2482L37.5556 66.215L37.8776 66.1791L38.1991 66.1391L38.5202 66.0965L38.8408 66.0502L39.161 66.0008L39.4807 65.9483L39.7995 65.8922L40.1183 65.8333L40.4358 65.7705L40.7533 65.7054L41.0694 65.6366L41.3856 65.5643L41.6999 65.4889L42.0142 65.4108L42.3281 65.329L42.6407 65.2437L42.9523 65.1557L43.2631 65.0646L43.5729 64.9702L43.8819 64.8728L44.1899 64.7722L44.4971 64.668L44.8024 64.5612L45.1078 64.4516L45.4118 64.3384L45.7144 64.2226L46.0157 64.1036L46.3166 63.9819L46.6107 63.8588L46.9085 63.7313L47.2053 63.6006L47.5008 63.4673L47.7949 63.3307L48.0877 63.1915L48.3791 63.0492L48.6687 62.9042L48.957 62.756L49.244 62.6055L49.5291 62.452L49.8129 62.2957L50.0949 62.1363L50.3751 61.9742L50.654 61.8089L50.9311 61.6414L51.2063 61.4708L51.4803 61.2974L51.7519 61.121L52.0214 60.9422L52.2899 60.7604L52.5562 60.5763L52.8207 60.389L53.0834 60.1995L53.3438 60.0064L53.6025 59.8115L53.8589 59.614L54.114 59.4137L54.3668 59.2107L54.6173 59.0055L54.8657 58.7976L55.1126 58.5874L55.3569 58.3746L55.5994 58.159L55.8392 57.9417L56.0772 57.7216L56.3134 57.4989L56.5474 57.2744L56.7804 57.0463L56.9106 56.916L57.1397 56.6861L57.3655 56.4535L57.5892 56.2187L57.8105 55.982L58.0297 55.7427L58.2461 55.502L58.4603 55.2586L58.6723 55.0134L58.8815 54.766L59.0886 54.5163L59.2929 54.2648L59.4949 54.0116L59.6939 53.7561L59.8906 53.4988L60.0846 53.2392L60.2759 52.9778L60.4645 52.7147L60.6508 52.4498L60.834 52.1826L61.0145 51.9131L61.1924 51.6428L61.3675 51.3702L61.5395 51.0963L61.7092 50.8197L61.8758 50.5422L62.0397 50.2624L62.2005 49.9818L62.359 49.6989L62.5144 49.4146L62.667 49.1286L62.8161 48.8412L62.963 48.5524L63.1067 48.2619L63.2481 47.97L63.386 47.6768L63.5212 47.3818L63.6536 47.0858L63.7838 46.7872L63.8557 46.6175L63.981 46.3184L64.1027 46.018L64.2217 45.7167L64.3375 45.414L64.4507 45.11L64.5607 44.8051L64.6676 44.4997L64.7709 44.1926L64.8719 43.8845L64.9694 43.5756L65.0636 43.2657L65.1553 42.955L65.2433 42.6434L65.3286 42.3308L65.4099 42.0174L65.4885 41.703L65.5639 41.3883L65.6357 41.0726L65.7044 40.756L65.7705 40.4385L65.8324 40.121L65.8917 39.8022L65.9478 39.4834L66.0004 39.1641L66.0498 38.8439L66.096 38.5229L66.1391 38.2018L66.1786 37.8803L66.2146 37.5583L66.2482 37.2359L66.2779 36.9135L66.3048 36.5901L66.3286 36.2668L66.3488 35.9435L66.3659 35.6197L66.3803 35.296L66.391 34.9718L66.3987 34.6475L66.4032 34.3229L66.405 34.004V33.9964L66.4032 33.6794Z" fill="#A37F45"/>
</svg>
