<svg width="260" height="215" viewBox="0 0 260 215" fill="none" xmlns="http://www.w3.org/2000/svg">
<path d="M66.0472 39.8838C65.8188 40.0677 61.5717 40.7088 60.0132 41.9606C58.4546 43.2128 57.8002 44.352 57.905 45.616C58.01 46.8796 58.8147 47.0397 59.1634 47.5406C59.5125 48.0415 60.0003 48.6672 61.0271 48.7425C62.3716 48.8409 63.7977 48.4488 64.9537 46.5882C66.1092 44.7275 66.1824 42.8462 66.1853 41.7977C66.187 41.1613 66.1409 40.5219 66.0472 39.8838Z" fill="#D3C093"/>
<path d="M69.1361 53.3671C68.7761 53.3473 64.6279 50.9192 62.1749 50.7815C59.7214 50.6441 58.1297 51.041 57.0602 52.0493C55.9912 53.0575 56.5194 53.7263 56.3531 54.3358C56.1872 54.9457 56.0233 55.7428 56.8153 56.5004C57.8526 57.4925 59.4074 58.1767 62.0803 57.588C64.7529 56.999 66.5368 55.6549 67.4994 54.8799C68.0835 54.4094 68.6302 53.9041 69.1361 53.3671Z" fill="#D3C093"/>
<path d="M63.2006 60.6552C62.8809 60.6108 59.4047 58.1599 57.2261 57.8553C55.0472 57.5509 53.5875 57.7821 52.5365 58.5915C51.486 59.4007 51.8945 60.0299 51.6883 60.555C51.4823 61.0805 51.2604 61.7712 51.8963 62.4985C52.7291 63.4508 54.0534 64.1702 56.4972 63.8507C58.9408 63.5307 60.6618 62.4786 61.5951 61.867C62.1616 61.4957 62.6979 61.0909 63.2006 60.6552Z" fill="#D3C093"/>
<path d="M57.2659 68.1758C56.9462 68.1314 53.4699 65.6804 51.2914 65.3759C49.1124 65.0715 47.6527 65.3027 46.6018 66.1121C45.5512 66.9213 45.9598 67.5505 45.7536 68.0756C45.5476 68.601 45.3257 69.2917 45.9616 70.019C46.7943 70.9713 48.1186 71.6907 50.5624 71.3712C53.006 71.0513 54.7271 69.9992 55.6604 69.3876C56.2268 69.0163 56.7631 68.6115 57.2659 68.1758Z" fill="#D3C093"/>
<path d="M54.1317 74.2223C53.7682 74.2495 49.2107 72.3169 46.7328 72.4998C44.2545 72.6829 42.7278 73.2981 41.8261 74.4688C40.9248 75.6393 41.5653 76.2526 41.5008 76.8969C41.4367 77.5417 41.406 78.3773 42.3254 79.0465C43.5293 79.9228 45.1997 80.4165 47.7763 79.463C50.3525 78.509 51.913 76.9012 52.7467 75.9829C53.2526 75.4254 53.7153 74.8373 54.1317 74.2223Z" fill="#D3C093"/>
<path d="M50.488 82.9446C50.1245 82.9719 45.5669 81.0393 43.089 81.2221C40.6107 81.4053 39.0841 82.0205 38.1824 83.1912C37.2811 84.3617 37.9215 84.975 37.8571 85.6193C37.793 86.264 37.7623 87.0996 38.6816 87.7689C39.8855 88.6452 41.556 89.1389 44.1325 88.1853C46.7088 87.2314 48.2693 85.6236 49.103 84.7052C49.6089 84.1477 50.0715 83.5596 50.488 82.9446Z" fill="#D3C093"/>
<path d="M46.9913 91.1185C46.6278 91.1457 42.0702 89.2131 39.5923 89.396C37.114 89.5791 35.5874 90.1943 34.6857 91.365C33.7844 92.5355 34.4248 93.1488 34.3604 93.7932C34.2963 94.4379 34.2656 95.2735 35.1849 95.9428C36.3888 96.8191 38.0592 97.3127 40.6358 96.3592C43.2121 95.4052 44.7726 93.7974 45.6063 92.8791C46.1122 92.3216 46.5748 91.7335 46.9913 91.1185Z" fill="#D3C093"/>
<path d="M45.9326 99.9456C45.5691 99.9728 41.0116 98.0402 38.5337 98.2231C36.0554 98.4062 34.5287 99.0214 33.627 100.192C32.7257 101.363 33.3662 101.976 33.3017 102.62C33.2376 103.265 33.2069 104.101 34.1263 104.77C35.3302 105.646 37.0006 106.14 39.5772 105.186C42.1534 104.232 43.7139 102.625 44.5476 101.706C45.0535 101.149 45.5162 100.561 45.9326 99.9456Z" fill="#D3C093"/>
<path d="M44.7118 108.3C44.3536 108.351 39.668 106.721 37.2257 107.07C34.7829 107.421 33.321 108.14 32.5264 109.374C31.7322 110.608 32.4197 111.179 32.4107 111.83C32.4021 112.48 32.4429 113.32 33.4119 113.929C34.6808 114.726 36.3798 115.109 38.8543 113.98C41.3285 112.85 42.7394 111.134 43.4881 110.157C43.9424 109.565 44.3512 108.944 44.7118 108.3Z" fill="#D3C093"/>
<path d="M43.924 116.765C43.5734 116.842 38.7829 115.536 36.3924 116.058C34.0017 116.58 32.6162 117.403 31.938 118.696C31.2602 119.988 31.9927 120.513 32.0416 121.166C32.0909 121.818 32.2059 122.657 33.2208 123.2C34.5498 123.91 36.2683 124.174 38.6214 122.869C40.974 121.564 42.2203 119.744 42.8758 118.713C43.2735 118.087 43.6237 117.436 43.924 116.765Z" fill="#D3C093"/>
<path d="M44.0843 125.919C43.7337 125.996 38.9432 124.69 36.5528 125.212C34.162 125.734 32.7765 126.557 32.0984 127.85C31.4206 129.142 32.1531 129.667 32.2019 130.319C32.2512 130.972 32.3663 131.811 33.3811 132.353C34.7101 133.064 36.4286 133.328 38.7817 132.023C41.1344 130.718 42.3807 128.898 43.0361 127.867C43.4339 127.241 43.784 126.59 44.0843 125.919Z" fill="#D3C093"/>
<path d="M44.9896 134.577C44.6579 134.698 39.7546 133.987 37.4927 134.805C35.2305 135.624 34.0015 136.619 33.54 137.996C33.0789 139.372 33.8798 139.806 34.0304 140.452C34.1815 141.099 34.4264 141.923 35.507 142.339C36.9221 142.885 38.6489 142.936 40.7509 141.339C42.8524 139.741 43.788 137.768 44.2684 136.655C44.5599 135.98 44.8008 135.286 44.9896 134.577Z" fill="#D3C093"/>
<path d="M47.04 144.086C46.7083 144.206 41.805 143.495 39.5431 144.313C37.2809 145.132 36.0519 146.128 35.5905 147.504C35.1293 148.881 35.9302 149.314 36.0809 149.961C36.2319 150.607 36.4768 151.431 37.5574 151.848C38.9725 152.393 40.6993 152.444 42.8013 150.847C44.9028 149.25 45.8385 147.276 46.3188 146.163C46.6103 145.488 46.8512 144.794 47.04 144.086Z" fill="#D3C093"/>
<path d="M49.4889 152.006C49.1668 152.15 44.2248 151.798 42.0285 152.779C39.8319 153.761 38.6787 154.843 38.3187 156.249C37.959 157.656 38.7894 158.03 38.9867 158.663C39.1845 159.297 39.4888 160.101 40.5969 160.438C42.0479 160.879 43.7738 160.804 45.7539 159.058C47.7335 157.312 48.5229 155.275 48.9209 154.13C49.1625 153.436 49.3522 152.726 49.4889 152.006Z" fill="#D3C093"/>
<path d="M22.7529 144.87C23.0916 145.017 27.9678 144.7 30.2777 145.703C32.588 146.707 33.8721 147.803 34.4071 149.22C34.9419 150.637 34.1621 151.007 34.0452 151.642C33.9279 152.278 33.726 153.084 32.6651 153.414C31.2758 153.846 29.5479 153.758 27.3573 151.988C25.167 150.217 24.1253 148.164 23.5852 147.01C23.2575 146.31 22.9794 145.595 22.7529 144.87Z" fill="#D3C093"/>
<path d="M25.3233 154.557C25.6719 154.679 30.5121 154.008 32.8889 154.84C35.2661 155.672 36.6267 156.673 37.2635 158.047C37.9 159.42 37.1493 159.846 37.079 160.489C37.0083 161.131 36.8657 161.95 35.8316 162.356C34.4774 162.888 32.7478 162.926 30.434 161.32C28.1206 159.714 26.932 157.742 26.3093 156.631C25.9315 155.956 25.6021 155.263 25.3233 154.557Z" fill="#D3C093"/>
<path d="M20.1544 135.063C20.4932 135.21 25.3694 134.893 27.6793 135.896C29.9895 136.9 31.2736 137.996 31.8087 139.413C32.3434 140.83 31.5637 141.2 31.4468 141.835C31.3295 142.471 31.1276 143.277 30.0666 143.607C28.6773 144.039 26.9495 143.951 24.7588 142.181C22.5686 140.41 21.5268 138.357 20.9867 137.203C20.659 136.503 20.381 135.788 20.1544 135.063Z" fill="#D3C093"/>
<path d="M18.775 125.582C19.1137 125.73 23.9899 125.413 26.2998 126.416C28.61 127.419 29.8941 128.516 30.4292 129.933C30.964 131.349 30.1842 131.719 30.0673 132.355C29.95 132.99 29.7481 133.796 28.6872 134.127C27.2979 134.559 25.57 134.47 23.3794 132.7C21.1891 130.93 20.1474 128.876 19.6073 127.723C19.2796 127.022 19.0015 126.307 18.775 125.582Z" fill="#D3C093"/>
<path d="M18.8993 115.366C19.2381 115.513 24.1143 115.197 26.4242 116.2C28.7344 117.203 30.0185 118.3 30.5536 119.716C31.0884 121.133 30.3086 121.503 30.1917 122.138C30.0744 122.774 29.8725 123.58 28.8115 123.91C27.4223 124.342 25.6944 124.254 23.5038 122.484C21.3135 120.713 20.2718 118.66 19.7317 117.506C19.4039 116.806 19.1259 116.091 18.8993 115.366Z" fill="#D3C093"/>
<path d="M20.1584 104.708C20.3759 104.984 20.8265 109.357 22.3063 111.239C23.7865 113.122 25.2012 114.08 26.845 114.322C28.4883 114.564 28.767 113.813 29.4457 113.605C30.1246 113.397 30.9771 113.086 31.166 112.092C31.4131 110.79 31.0331 109.274 28.7302 107.622C26.4272 105.972 24.0011 105.385 22.6456 105.095C21.8228 104.919 20.992 104.79 20.1584 104.708Z" fill="#D3C093"/>
<path d="M21.103 94.8988C21.3122 95.1795 21.6278 99.5531 23.0514 101.468C24.4755 103.382 25.8625 104.373 27.5013 104.655C29.1396 104.936 29.4421 104.193 30.1282 104.003C30.8146 103.812 31.6781 103.522 31.898 102.535C32.1859 101.242 31.8524 99.7201 29.5973 98.0163C27.342 96.3128 24.9305 95.668 23.5819 95.3458C22.7633 95.1503 21.9352 95.001 21.103 94.8988Z" fill="#D3C093"/>
<path d="M22.6734 82.9909C22.8356 83.3351 22.0954 88.1184 23.1982 90.4649C24.3015 92.8118 25.5941 94.1539 27.3428 94.7803C29.0909 95.4064 29.6119 94.6638 30.421 94.5931C31.2305 94.5219 32.261 94.3793 32.7513 93.3568C33.3932 92.0179 33.4025 90.3089 31.3243 88.0263C29.2457 85.744 26.7299 84.5738 25.3133 83.9608C24.4535 83.5889 23.5716 83.2649 22.6734 82.9909Z" fill="#D3C093"/>
<path d="M26.8367 74.8089C26.9927 75.1396 26.2814 79.736 27.3411 81.9908C28.4013 84.2459 29.6433 85.5356 31.3236 86.1375C33.0035 86.739 33.5041 86.0255 34.2816 85.9575C35.0594 85.8891 36.0496 85.7521 36.5207 84.7696C37.1375 83.483 37.1465 81.8409 35.1495 79.6474C33.1522 77.4544 30.7347 76.3299 29.3735 75.7409C28.5473 75.3835 27.6999 75.0722 26.8367 74.8089Z" fill="#D3C093"/>
<path d="M30.6182 65.5725C30.7741 65.9032 30.0628 70.4996 31.1225 72.7544C32.1827 75.0095 33.4248 76.2992 35.1051 76.9011C36.7849 77.5027 37.2855 76.7891 38.063 76.7211C38.8408 76.6528 39.831 76.5157 40.3022 75.5332C40.919 74.2466 40.928 72.6045 38.931 70.411C36.9337 68.218 34.5161 67.0935 33.155 66.5045C32.3287 66.1471 31.4813 65.8358 30.6182 65.5725Z" fill="#D3C093"/>
<path d="M37.8703 56.0856C38.0446 56.41 42.4877 59.2172 43.6782 61.4266C44.8686 63.6365 45.103 65.276 44.4395 66.6914C43.776 68.1064 42.8123 67.9011 42.208 68.3127C41.6032 68.7243 40.7903 69.2131 39.6165 68.8015C38.0795 68.2625 36.6642 67.1147 36.1846 64.3946C35.7054 61.6746 36.4382 59.4566 36.8887 58.2389C37.1622 57.4997 37.4901 56.7805 37.8703 56.0856Z" fill="#D3C093"/>
<path d="M44.0898 47.5025C44.2641 47.8268 48.7072 50.6341 49.8976 52.8435C51.0881 55.0534 51.3224 56.6929 50.659 58.1083C49.9955 59.5232 49.0318 59.318 48.4275 59.7296C47.8227 60.1411 47.0098 60.63 45.836 60.2184C44.299 59.6794 42.8837 58.5316 42.404 55.8115C41.9249 53.0915 42.6577 50.8735 43.1081 49.6557C43.3817 48.9166 43.7096 48.1973 44.0898 47.5025Z" fill="#D3C093"/>
<path d="M50.0246 39.9819C50.1989 40.3063 54.642 43.1135 55.8325 45.3229C57.0229 47.5328 57.2573 49.1723 56.5938 50.5877C55.9303 52.0027 54.9666 51.7974 54.3623 52.209C53.7575 52.6206 52.9446 53.1094 51.7708 52.6978C50.2338 52.1588 48.8185 51.011 48.3389 48.2909C47.8597 45.5709 48.5925 43.3529 49.043 42.1352C49.3165 41.396 49.6444 40.6768 50.0246 39.9819Z" fill="#D3C093"/>
<path d="M194.934 39.8837C195.162 40.0677 199.41 40.7088 200.968 41.9606C202.527 43.2128 203.181 44.3519 203.076 45.616C202.971 46.8796 202.166 47.0397 201.818 47.5405C201.469 48.0415 200.981 48.6672 199.954 48.7424C198.61 48.8409 197.184 48.4487 196.028 46.5882C194.872 44.7274 194.799 42.8462 194.796 41.7977C194.794 41.1612 194.84 40.5219 194.934 39.8837Z" fill="#D3C093"/>
<path d="M191.845 53.3671C192.205 53.3473 196.353 50.9192 198.806 50.7815C201.26 50.6441 202.852 51.0409 203.921 52.0493C204.99 53.0575 204.462 53.7262 204.628 54.3357C204.794 54.9456 204.958 55.7427 204.166 56.5004C203.129 57.4925 201.574 58.1766 198.901 57.588C196.228 56.999 194.444 55.6548 193.482 54.8798C192.898 54.4093 192.351 53.904 191.845 53.3671Z" fill="#D3C093"/>
<path d="M197.781 60.6552C198.1 60.6108 201.576 58.1598 203.755 57.8553C205.934 57.5509 207.394 57.7821 208.445 58.5915C209.495 59.4007 209.087 60.0299 209.293 60.555C209.499 61.0804 209.721 61.7711 209.085 62.4984C208.252 63.4507 206.928 64.1701 204.484 63.8506C202.04 63.5307 200.319 62.4786 199.386 61.867C198.82 61.4957 198.283 61.0909 197.781 60.6552Z" fill="#D3C093"/>
<path d="M203.715 68.1757C204.035 68.1314 207.511 65.6804 209.69 65.3759C211.869 65.0715 213.328 65.3026 214.379 66.112C215.43 66.9213 215.021 67.5505 215.228 68.0755C215.434 68.601 215.656 69.2917 215.02 70.019C214.187 70.9713 212.863 71.6907 210.419 71.3712C207.975 71.0513 206.254 69.9991 205.321 69.3875C204.754 69.0162 204.218 68.6115 203.715 68.1757Z" fill="#D3C093"/>
<path d="M206.849 74.2222C207.213 74.2494 211.771 72.3169 214.248 72.4997C216.727 72.6829 218.253 73.298 219.155 74.4688C220.056 75.6393 219.416 76.2526 219.48 76.8969C219.544 77.5416 219.575 78.3772 218.656 79.0465C217.452 79.9228 215.782 80.4165 213.205 79.4629C210.629 78.509 209.068 76.9012 208.235 75.9828C207.729 75.4253 207.266 74.8372 206.849 74.2222Z" fill="#D3C093"/>
<path d="M210.493 82.9446C210.857 82.9718 215.414 81.0392 217.892 81.2221C220.37 81.4053 221.897 82.0204 222.799 83.1912C223.7 84.3617 223.06 84.975 223.124 85.6193C223.188 86.264 223.219 87.0996 222.3 87.7689C221.096 88.6452 219.425 89.1389 216.849 88.1853C214.272 87.2314 212.712 85.6236 211.878 84.7052C211.372 84.1477 210.91 83.5596 210.493 82.9446Z" fill="#D3C093"/>
<path d="M213.99 91.1184C214.353 91.1457 218.911 89.2131 221.389 89.3959C223.867 89.5791 225.394 90.1943 226.296 91.365C227.197 92.5355 226.556 93.1488 226.621 93.7931C226.685 94.4378 226.716 95.2734 225.796 95.9427C224.592 96.819 222.922 97.3127 220.345 96.3591C217.769 95.4052 216.209 93.7974 215.375 92.879C214.869 92.3215 214.406 91.7334 213.99 91.1184Z" fill="#D3C093"/>
<path d="M215.049 99.9456C215.412 99.9728 219.97 98.0402 222.448 98.2231C224.926 98.4062 226.452 99.0214 227.354 100.192C228.255 101.363 227.615 101.976 227.679 102.62C227.744 103.265 227.774 104.101 226.855 104.77C225.651 105.646 223.981 106.14 221.404 105.186C218.828 104.232 217.267 102.625 216.434 101.706C215.928 101.149 215.465 100.561 215.049 99.9456Z" fill="#D3C093"/>
<path d="M216.269 108.3C216.628 108.351 221.313 106.721 223.756 107.07C226.198 107.421 227.66 108.14 228.455 109.374C229.249 110.608 228.561 111.179 228.57 111.83C228.579 112.48 228.538 113.32 227.569 113.929C226.3 114.726 224.601 115.109 222.127 113.98C219.653 112.85 218.242 111.134 217.493 110.157C217.039 109.565 216.63 108.944 216.269 108.3Z" fill="#D3C093"/>
<path d="M217.057 116.765C217.408 116.842 222.198 115.536 224.589 116.058C226.98 116.58 228.365 117.403 229.043 118.696C229.721 119.988 228.988 120.513 228.94 121.166C228.89 121.818 228.775 122.657 227.76 123.199C226.431 123.91 224.713 124.174 222.36 122.869C220.007 121.564 218.761 119.744 218.105 118.713C217.708 118.087 217.358 117.436 217.057 116.765Z" fill="#D3C093"/>
<path d="M216.897 125.919C217.247 125.996 222.038 124.69 224.428 125.212C226.819 125.734 228.205 126.557 228.883 127.85C229.561 129.142 228.828 129.667 228.779 130.319C228.73 130.972 228.615 131.811 227.6 132.353C226.271 133.064 224.553 133.328 222.199 132.023C219.847 130.718 218.601 128.898 217.945 127.867C217.547 127.241 217.197 126.59 216.897 125.919Z" fill="#D3C093"/>
<path d="M215.992 134.577C216.323 134.698 221.227 133.987 223.488 134.805C225.751 135.624 226.98 136.619 227.441 137.996C227.902 139.372 227.101 139.806 226.951 140.452C226.8 141.099 226.555 141.923 225.474 142.339C224.059 142.885 222.332 142.936 220.23 141.339C218.129 139.741 217.193 137.768 216.713 136.655C216.421 135.98 216.18 135.286 215.992 134.577Z" fill="#D3C093"/>
<path d="M213.941 144.086C214.273 144.206 219.176 143.495 221.438 144.313C223.7 145.132 224.929 146.128 225.391 147.504C225.852 148.881 225.051 149.314 224.9 149.961C224.749 150.607 224.504 151.431 223.424 151.848C222.009 152.393 220.282 152.444 218.18 150.847C216.078 149.25 215.143 147.276 214.662 146.163C214.371 145.488 214.13 144.794 213.941 144.086Z" fill="#D3C093"/>
<path d="M211.984 151.624C212.301 151.779 217.252 151.587 219.415 152.639C221.579 153.691 222.696 154.81 223.011 156.228C223.324 157.645 222.482 157.992 222.265 158.619C222.046 159.246 221.716 160.04 220.598 160.34C219.133 160.734 217.411 160.603 215.488 158.794C213.566 156.984 212.843 154.923 212.483 153.766C212.264 153.064 212.097 152.348 211.984 151.624Z" fill="#D3C093"/>
<path d="M238.228 144.869C237.89 145.017 233.013 144.7 230.703 145.703C228.393 146.707 227.109 147.803 226.574 149.22C226.039 150.637 226.819 151.007 226.936 151.642C227.053 152.278 227.255 153.084 228.316 153.414C229.705 153.846 231.433 153.758 233.624 151.987C235.814 150.217 236.856 148.164 237.396 147.01C237.724 146.31 238.002 145.595 238.228 144.869Z" fill="#D3C093"/>
<path d="M236.054 154.958C235.702 155.069 230.886 154.241 228.483 154.996C226.08 155.751 224.688 156.706 224.007 158.059C223.326 159.411 224.063 159.861 224.112 160.505C224.162 161.15 224.278 161.973 225.298 162.413C226.634 162.988 228.362 163.082 230.727 161.552C233.091 160.022 234.343 158.089 235.001 156.999C235.401 156.337 235.753 155.655 236.054 154.958Z" fill="#D3C093"/>
<path d="M240.827 135.062C240.488 135.21 235.612 134.893 233.302 135.896C230.992 136.9 229.708 137.996 229.173 139.413C228.638 140.83 229.418 141.2 229.534 141.835C229.652 142.471 229.854 143.277 230.915 143.607C232.304 144.039 234.032 143.951 236.222 142.18C238.413 140.41 239.454 138.357 239.994 137.203C240.322 136.503 240.6 135.788 240.827 135.062Z" fill="#D3C093"/>
<path d="M242.206 125.582C241.867 125.73 236.991 125.413 234.681 126.416C232.371 127.419 231.087 128.516 230.552 129.933C230.017 131.349 230.797 131.719 230.914 132.355C231.031 132.99 231.233 133.796 232.294 134.126C233.683 134.559 235.411 134.47 237.602 132.7C239.792 130.93 240.834 128.876 241.374 127.722C241.702 127.022 241.98 126.307 242.206 125.582Z" fill="#D3C093"/>
<path d="M242.082 115.366C241.743 115.513 236.867 115.197 234.557 116.2C232.247 117.203 230.963 118.3 230.428 119.716C229.893 121.133 230.673 121.503 230.789 122.138C230.907 122.774 231.109 123.58 232.17 123.91C233.559 124.342 235.287 124.254 237.477 122.484C239.668 120.713 240.709 118.66 241.25 117.506C241.577 116.806 241.855 116.091 242.082 115.366Z" fill="#D3C093"/>
<path d="M240.823 104.708C240.605 104.984 240.155 109.357 238.675 111.239C237.195 113.122 235.78 114.08 234.136 114.322C232.493 114.564 232.214 113.813 231.535 113.605C230.857 113.397 230.004 113.086 229.815 112.092C229.568 110.79 229.948 109.274 232.251 107.622C234.554 105.972 236.98 105.385 238.336 105.095C239.158 104.919 239.989 104.79 240.823 104.708Z" fill="#D3C093"/>
<path d="M239.878 94.8987C239.669 95.1794 239.353 99.553 237.93 101.467C236.506 103.382 235.119 104.373 233.48 104.655C231.842 104.936 231.539 104.193 230.853 104.003C230.167 103.812 229.303 103.522 229.083 102.535C228.795 101.242 229.129 99.7201 231.384 98.0162C233.639 96.3128 236.051 95.6679 237.399 95.3458C238.218 95.1503 239.046 95.001 239.878 94.8987Z" fill="#D3C093"/>
<path d="M237.617 84.3913C237.464 84.7168 238.164 89.2398 237.121 91.4587C236.078 93.6778 234.856 94.9469 233.202 95.5392C231.549 96.1312 231.056 95.429 230.291 95.3622C229.526 95.2949 228.552 95.16 228.088 94.1932C227.481 92.9271 227.472 91.3111 229.437 89.1527C231.403 86.9946 233.782 85.888 235.121 85.3085C235.934 84.9568 236.768 84.6504 237.617 84.3913Z" fill="#D3C093"/>
<path d="M234.144 74.8089C233.989 75.1396 234.7 79.7359 233.64 81.9907C232.58 84.2459 231.338 85.5356 229.658 86.1374C227.978 86.739 227.477 86.0255 226.7 85.9575C225.922 85.8891 224.932 85.7521 224.46 84.7696C223.844 83.483 223.835 81.8408 225.832 79.6474C227.829 77.4543 230.247 76.3298 231.608 75.7409C232.434 75.3835 233.281 75.0721 234.144 74.8089Z" fill="#D3C093"/>
<path d="M230.363 65.5725C230.207 65.9032 230.918 70.4995 229.859 72.7543C228.799 75.0095 227.556 76.2992 225.876 76.9011C224.196 77.5026 223.696 76.7891 222.918 76.7211C222.14 76.6527 221.15 76.5157 220.679 75.5332C220.062 74.2466 220.053 72.6044 222.05 70.411C224.048 68.218 226.465 67.0934 227.826 66.5045C228.652 66.1471 229.5 65.8358 230.363 65.5725Z" fill="#D3C093"/>
<path d="M223.111 56.0856C222.937 56.4099 218.494 59.2172 217.303 61.4266C216.113 63.6365 215.878 65.276 216.542 66.6914C217.205 68.1063 218.169 67.9011 218.773 68.3127C219.378 68.7242 220.191 69.2131 221.365 68.8015C222.902 68.2625 224.317 67.1147 224.797 64.3946C225.276 61.6746 224.543 59.4566 224.093 58.2388C223.819 57.4997 223.491 56.7804 223.111 56.0856Z" fill="#D3C093"/>
<path d="M216.891 47.5024C216.717 47.8268 212.274 50.6341 211.084 52.8435C209.893 55.0534 209.659 56.6928 210.322 58.1083C210.986 59.5232 211.949 59.3179 212.554 59.7296C213.158 60.1411 213.971 60.6299 215.145 60.2184C216.682 59.6794 218.097 58.5316 218.577 55.8115C219.056 53.0915 218.323 50.8735 217.873 49.6557C217.599 48.9166 217.272 48.1973 216.891 47.5024Z" fill="#D3C093"/>
<path d="M210.957 39.9819C210.782 40.3062 206.339 43.1135 205.149 45.3229C203.958 47.5328 203.724 49.1723 204.387 50.5877C205.051 52.0026 206.015 51.7974 206.619 52.209C207.224 52.6205 208.037 53.1094 209.21 52.6978C210.747 52.1588 212.163 51.011 212.642 48.2909C213.121 45.5709 212.389 43.3529 211.938 42.1351C211.665 41.396 211.337 40.6767 210.957 39.9819Z" fill="#D3C093"/>
<path d="M130.588 0L134.854 13.1287H148.658L137.49 21.2426L141.756 34.3713L130.588 26.2574L119.42 34.3713L123.686 21.2426L112.518 13.1287H126.322L130.588 0Z" fill="#D3C093"/>
<path d="M176.188 19.2L178.747 27.0772H187.03L180.329 31.9456L182.889 39.8228L176.188 34.9544L169.487 39.8228L172.046 31.9456L165.346 27.0772H173.628L176.188 19.2Z" fill="#603D1F"/>
<path d="M84.9878 19.2L87.5472 27.0772H95.8298L89.1291 31.9456L91.6885 39.8228L84.9878 34.9544L78.287 39.8228L80.8465 31.9456L74.1457 27.0772H82.4283L84.9878 19.2Z" fill="#603D1F"/>
<path d="M195.302 167.032C203.976 155.098 209.18 140.998 210.34 126.291C211.5 111.584 208.571 96.8419 201.876 83.6955C195.181 70.5491 184.981 59.5101 172.404 51.7987C159.827 44.0873 145.362 40.0039 130.609 40C115.856 39.9961 101.389 44.0718 88.8081 51.7765C76.2268 59.4812 66.0211 70.5148 59.3191 83.6577C52.6171 96.8005 49.68 111.541 50.8323 126.249C51.9846 140.956 57.1815 155.059 65.8485 166.998" stroke="#603D1F" stroke-width="2"/>
<path d="M231.588 214H256.851L249.132 198.176L256.851 182H231.588V198V214Z" fill="#C89A78" stroke="#603D1F" stroke-width="2"/>
<path d="M232.588 214L242.088 207H232.588V214Z" fill="#603D1F"/>
<path d="M28.851 214H3.58785L11.3072 198.176L3.58785 182H28.851V198V214Z" fill="#C89A78" stroke="#603D1F" stroke-width="2"/>
<path d="M28.5878 214L19.0878 207H28.5878V214Z" fill="#603D1F"/>
<rect x="18.5878" y="170" width="224" height="37" rx="3" fill="#F6EFDD" stroke="#603D1F" stroke-width="2"/>
<path d="M55.8605 181.261V177.727H74.4287V181.261H67.2355V201H63.0537V181.261H55.8605ZM82.2241 177.727V201H78.0082V177.727H82.2241ZM89.7781 201H85.2781L93.4713 177.727H98.6758L106.88 201H102.38L96.1645 182.5H95.9827L89.7781 201ZM89.9258 191.875H102.199V195.261H89.9258V191.875ZM117.883 201V177.727H126.61C128.398 177.727 129.898 178.038 131.11 178.659C132.33 179.28 133.251 180.152 133.872 181.273C134.501 182.386 134.815 183.686 134.815 185.17C134.815 186.663 134.497 187.958 133.86 189.057C133.232 190.148 132.304 190.992 131.076 191.591C129.849 192.182 128.342 192.477 126.554 192.477H120.338V188.977H125.985C127.031 188.977 127.887 188.833 128.554 188.545C129.22 188.25 129.713 187.822 130.031 187.261C130.357 186.693 130.52 185.996 130.52 185.17C130.52 184.345 130.357 183.64 130.031 183.057C129.705 182.466 129.209 182.019 128.542 181.716C127.876 181.405 127.016 181.25 125.963 181.25H122.099V201H117.883ZM129.906 190.455L135.667 201H130.963L125.304 190.455H129.906ZM159.491 189.364C159.491 191.871 159.021 194.019 158.082 195.807C157.15 197.587 155.878 198.951 154.264 199.898C152.658 200.845 150.836 201.318 148.798 201.318C146.76 201.318 144.934 200.845 143.321 199.898C141.715 198.943 140.442 197.576 139.503 195.795C138.571 194.008 138.105 191.864 138.105 189.364C138.105 186.856 138.571 184.712 139.503 182.932C140.442 181.144 141.715 179.777 143.321 178.83C144.934 177.883 146.76 177.409 148.798 177.409C150.836 177.409 152.658 177.883 154.264 178.83C155.878 179.777 157.15 181.144 158.082 182.932C159.021 184.712 159.491 186.856 159.491 189.364ZM155.253 189.364C155.253 187.598 154.976 186.11 154.423 184.898C153.878 183.678 153.12 182.758 152.15 182.136C151.181 181.508 150.063 181.193 148.798 181.193C147.533 181.193 146.415 181.508 145.446 182.136C144.476 182.758 143.715 183.678 143.162 184.898C142.616 186.11 142.343 187.598 142.343 189.364C142.343 191.129 142.616 192.621 143.162 193.841C143.715 195.053 144.476 195.973 145.446 196.602C146.415 197.223 147.533 197.534 148.798 197.534C150.063 197.534 151.181 197.223 152.15 196.602C153.12 195.973 153.878 195.053 154.423 193.841C154.976 192.621 155.253 191.129 155.253 189.364ZM176.125 184.125C176.019 183.133 175.572 182.36 174.784 181.807C174.003 181.254 172.988 180.977 171.738 180.977C170.86 180.977 170.106 181.11 169.477 181.375C168.848 181.64 168.367 182 168.034 182.455C167.7 182.909 167.53 183.428 167.522 184.011C167.522 184.496 167.632 184.917 167.852 185.273C168.079 185.629 168.386 185.932 168.772 186.182C169.159 186.424 169.587 186.629 170.057 186.795C170.526 186.962 171 187.102 171.477 187.216L173.659 187.761C174.538 187.966 175.382 188.242 176.193 188.591C177.011 188.939 177.742 189.379 178.386 189.909C179.038 190.439 179.553 191.08 179.932 191.83C180.31 192.58 180.5 193.458 180.5 194.466C180.5 195.83 180.151 197.03 179.454 198.068C178.757 199.098 177.75 199.905 176.432 200.489C175.121 201.064 173.534 201.352 171.67 201.352C169.86 201.352 168.288 201.072 166.954 200.511C165.628 199.951 164.591 199.133 163.841 198.057C163.098 196.981 162.697 195.67 162.636 194.125H166.784C166.844 194.936 167.094 195.61 167.534 196.148C167.973 196.686 168.545 197.087 169.25 197.352C169.962 197.617 170.757 197.75 171.636 197.75C172.553 197.75 173.356 197.614 174.045 197.341C174.742 197.061 175.288 196.674 175.682 196.182C176.075 195.682 176.276 195.098 176.284 194.432C176.276 193.826 176.098 193.326 175.75 192.932C175.401 192.53 174.913 192.197 174.284 191.932C173.663 191.659 172.935 191.417 172.102 191.205L169.454 190.523C167.538 190.03 166.022 189.284 164.909 188.284C163.803 187.277 163.25 185.939 163.25 184.273C163.25 182.902 163.621 181.701 164.363 180.67C165.113 179.64 166.132 178.841 167.42 178.273C168.708 177.697 170.166 177.409 171.795 177.409C173.447 177.409 174.894 177.697 176.136 178.273C177.386 178.841 178.367 179.633 179.079 180.648C179.791 181.655 180.159 182.814 180.182 184.125H176.125ZM186.872 201H182.372L190.565 177.727H195.77L203.974 201H199.474L193.258 182.5H193.076L186.872 201ZM187.02 191.875H199.292V195.261H187.02V191.875Z" fill="#603D1F"/>
<path d="M82.7795 139.799C82.7795 137.846 83.0026 135.936 83.4489 134.067C83.9231 132.17 84.5787 130.384 85.4155 128.711C86.2523 127.009 87.2426 125.461 88.3863 124.066C89.5579 122.644 90.8271 121.416 92.1939 120.384C93.5887 119.352 95.0671 118.557 96.6292 117.999C98.1913 117.413 99.7952 117.121 101.441 117.121C103.366 117.121 104.858 117.525 105.918 118.334C107.006 119.143 107.55 120.273 107.55 121.723C107.55 122.281 107.466 122.853 107.299 123.439C107.159 124.024 106.936 124.61 106.629 125.196C106.351 125.754 106.016 126.298 105.625 126.828C105.235 127.358 104.802 127.818 104.328 128.209C103.603 128.097 102.975 127.776 102.445 127.246C101.915 126.688 101.581 126.047 101.441 125.322C102.417 124.513 103.184 123.676 103.742 122.811C104.328 121.918 104.621 121.109 104.621 120.384C104.621 119.157 103.854 118.543 102.32 118.543C101.678 118.543 101.009 118.683 100.311 118.962C99.6418 119.213 98.9584 119.575 98.261 120.049C97.5637 120.524 96.8802 121.096 96.2108 121.765C95.5692 122.434 94.9695 123.174 94.4116 123.983C90.5342 129.562 88.5955 135.266 88.5955 141.096C88.5955 143.16 88.9163 144.82 89.5579 146.075C90.1995 147.331 91.0502 148.07 92.1102 148.293C93.3097 148.014 94.83 147.247 96.671 145.992C98.5121 144.736 100.521 143.104 102.696 141.096C102.975 141.375 103.143 141.668 103.198 141.975C102.389 143.035 101.553 144.053 100.688 145.029C99.8231 146.006 98.9584 146.898 98.0937 147.707C97.2568 148.516 96.42 149.227 95.5831 149.841C94.7742 150.455 94.021 150.929 93.3237 151.264C89.8647 151.208 87.2426 150.218 85.4573 148.293C83.6721 146.368 82.7795 143.537 82.7795 139.799ZM110.882 149.464C109.292 149.297 108.023 148.6 107.074 147.372C106.126 146.145 105.652 144.583 105.652 142.686C105.652 141.57 105.819 140.413 106.154 139.213C106.489 138.014 106.963 136.856 107.576 135.74C108.19 134.597 108.915 133.523 109.752 132.518C110.589 131.514 111.496 130.649 112.472 129.924C114.006 128.781 115.443 128.209 116.782 128.209C117.674 128.683 118.553 129.673 119.418 131.179C119.557 131.179 119.683 131.179 119.794 131.179C119.906 131.152 120.031 131.138 120.171 131.138C121.649 131.138 122.389 132.449 122.389 135.071C122.389 136.828 122.096 138.502 121.51 140.092C120.952 141.654 120.157 143.077 119.125 144.36C118.121 145.643 116.907 146.731 115.485 147.623C114.09 148.488 112.556 149.102 110.882 149.464ZM113.016 136.284C112.542 136.926 112.095 137.623 111.677 138.376C111.259 139.129 110.896 139.897 110.589 140.678C110.282 141.431 110.045 142.17 109.878 142.895C109.71 143.593 109.627 144.22 109.627 144.778C109.627 145.448 109.738 146.089 109.961 146.703C110.185 147.317 110.436 147.665 110.715 147.749C111.97 147.47 113.114 146.954 114.146 146.201C115.206 145.42 116.112 144.457 116.865 143.314C117.646 142.17 118.246 140.873 118.665 139.422C119.111 137.972 119.334 136.424 119.334 134.778C119.334 134.053 119.292 133.481 119.209 133.062C119.125 132.644 118.985 132.281 118.79 131.974C117.563 132.337 116.461 132.923 115.485 133.732C114.536 134.541 113.713 135.392 113.016 136.284ZM152.923 117.79C152.449 117.79 151.933 118.083 151.375 118.669C150.817 119.254 150.217 120.077 149.576 121.137C148.962 122.169 148.334 123.411 147.693 124.861C147.079 126.312 146.479 127.916 145.894 129.673C146.535 129.701 147.205 129.743 147.902 129.799C148.627 129.827 149.241 129.882 149.743 129.966C149.799 130.078 149.827 130.273 149.827 130.552C149.827 130.859 149.785 131.193 149.701 131.556C149.646 131.919 149.548 132.198 149.408 132.393C148.711 132.337 148.014 132.281 147.316 132.226C146.647 132.142 145.949 132.072 145.224 132.016C143.829 136.424 142.574 140.259 141.458 143.523C140.371 146.787 139.352 149.576 138.404 151.891C137.483 154.234 136.619 156.145 135.81 157.624C135.001 159.102 134.178 160.26 133.341 161.097C132.504 161.961 131.626 162.547 130.705 162.854C129.812 163.189 128.822 163.356 127.734 163.356C126.479 163.356 125.419 163.161 124.554 162.77C123.717 162.408 122.936 161.906 122.211 161.264C121.374 162.045 120.509 162.589 119.617 162.896C118.696 163.203 117.678 163.356 116.562 163.356C114.582 163.356 112.894 162.687 111.499 161.348C111.499 161.152 111.555 160.943 111.667 160.72C111.778 160.497 111.904 160.343 112.043 160.26C112.434 160.734 112.95 161.097 113.592 161.348C114.233 161.627 114.903 161.766 115.6 161.766C116.325 161.766 116.995 161.599 117.608 161.264C118.194 160.957 118.78 160.427 119.366 159.674C119.924 158.921 120.482 157.931 121.039 156.703C121.625 155.476 122.253 153.956 122.922 152.142C123.954 149.353 124.959 146.34 125.935 143.104C126.911 139.869 127.985 136.256 129.157 132.267C128.515 132.323 127.888 132.379 127.274 132.435C126.66 132.491 126.088 132.546 125.558 132.602C125.447 132.491 125.349 132.337 125.266 132.142C125.21 131.947 125.182 131.765 125.182 131.598C125.544 131.486 126.102 131.361 126.856 131.221C127.637 131.054 128.557 130.887 129.617 130.719C130.259 128.627 130.956 126.744 131.709 125.071C132.462 123.397 133.285 121.96 134.178 120.761C135.071 119.561 136.033 118.641 137.065 117.999C138.125 117.358 139.269 117.037 140.496 117.037C141.584 117.037 142.616 117.316 143.592 117.874C144.597 118.432 145.517 119.031 146.354 119.673C147.274 118.697 148.237 117.916 149.241 117.33C150.273 116.744 151.277 116.451 152.254 116.451C152.561 116.451 152.867 116.479 153.174 116.535C153.509 116.563 153.76 116.577 153.927 116.577C154.178 116.381 154.513 116.214 154.932 116.074C155.35 115.907 155.713 115.823 156.019 115.823C156.354 115.823 156.787 116.005 157.317 116.367C157.093 116.758 156.856 117.288 156.605 117.957C156.354 118.627 156.145 119.282 155.978 119.924C155.28 121.988 154.541 123.327 153.76 123.941C153.453 123.941 153.286 123.536 153.258 122.727C153.202 122.114 153.091 121.584 152.923 121.137C152.784 120.663 152.714 120.147 152.714 119.589C152.714 119.422 152.728 119.227 152.756 119.003C152.784 118.752 152.839 118.348 152.923 117.79ZM133.759 152.142C134.234 150.859 134.736 149.409 135.266 147.791C135.796 146.173 136.326 144.485 136.856 142.728C137.414 140.971 137.972 139.171 138.529 137.33C139.087 135.461 139.617 133.634 140.119 131.849H139.324C138.599 131.849 137.818 131.863 136.981 131.891C136.172 131.891 135.336 131.905 134.471 131.933C133.188 136.089 132.016 139.743 130.956 142.895C129.924 146.019 128.948 148.725 128.027 151.013C127.134 153.328 126.27 155.239 125.433 156.745C124.624 158.279 123.815 159.521 123.006 160.469C123.424 160.859 123.941 161.166 124.554 161.389C125.196 161.641 125.823 161.766 126.437 161.766C127.134 161.766 127.776 161.599 128.362 161.264C128.976 160.957 129.561 160.427 130.119 159.674C130.705 158.921 131.291 157.931 131.877 156.703C132.462 155.476 133.09 153.956 133.759 152.142ZM140.705 129.715C141.207 128.069 141.849 126.493 142.63 124.987C143.439 123.481 144.332 122.114 145.308 120.886C144.694 120.496 144.122 120.231 143.592 120.091C143.062 119.952 142.686 119.882 142.463 119.882C141.737 119.882 141.068 120.105 140.454 120.552C139.841 120.97 139.241 121.612 138.655 122.476C138.069 123.341 137.483 124.401 136.898 125.656C136.34 126.912 135.74 128.376 135.098 130.05C135.991 129.966 136.898 129.896 137.818 129.841C138.767 129.785 139.729 129.743 140.705 129.715ZM163.543 130.677C163.431 132.407 163.124 133.899 162.622 135.154C162.12 136.382 161.395 137.47 160.446 138.418C159.526 139.339 158.396 140.176 157.057 140.929C155.718 141.682 154.156 142.407 152.371 143.104C152.371 143.272 152.357 143.453 152.329 143.648C152.329 143.816 152.329 143.997 152.329 144.192C152.329 144.555 152.357 144.932 152.413 145.322C152.468 145.713 152.566 146.075 152.705 146.41C152.845 146.745 153.04 147.024 153.291 147.247C153.542 147.442 153.863 147.54 154.254 147.54C155.007 147.54 155.746 147.372 156.471 147.038C157.197 146.703 157.88 146.298 158.522 145.824C159.191 145.322 159.805 144.792 160.363 144.234C160.948 143.648 161.464 143.118 161.911 142.644C162.19 142.895 162.427 143.132 162.622 143.356C161.367 145.029 159.986 146.424 158.48 147.54C157.001 148.628 155.593 149.325 154.254 149.632C152.329 149.409 150.823 148.711 149.735 147.54C148.675 146.34 148.145 144.904 148.145 143.23C148.145 142.086 148.298 140.929 148.605 139.757C148.94 138.558 149.386 137.414 149.944 136.326C150.53 135.21 151.199 134.164 151.952 133.188C152.733 132.212 153.556 131.361 154.421 130.636C155.314 129.91 156.22 129.338 157.141 128.92C158.089 128.502 159.024 128.292 159.944 128.292C161.227 128.46 162.427 129.255 163.543 130.677ZM160.655 132.058C159.902 132.17 159.121 132.477 158.312 132.979C157.503 133.481 156.736 134.15 156.011 134.987C155.314 135.824 154.672 136.8 154.086 137.916C153.5 139.032 153.04 140.231 152.705 141.514C154.937 140.399 156.792 139.032 158.27 137.414C159.749 135.768 160.544 133.983 160.655 132.058ZM180.459 130.677C180.348 132.407 180.041 133.899 179.539 135.154C179.037 136.382 178.311 137.47 177.363 138.418C176.442 139.339 175.313 140.176 173.974 140.929C172.635 141.682 171.073 142.407 169.287 143.104C169.287 143.272 169.273 143.453 169.246 143.648C169.246 143.816 169.246 143.997 169.246 144.192C169.246 144.555 169.273 144.932 169.329 145.322C169.385 145.713 169.483 146.075 169.622 146.41C169.762 146.745 169.957 147.024 170.208 147.247C170.459 147.442 170.78 147.54 171.17 147.54C171.923 147.54 172.663 147.372 173.388 147.038C174.113 146.703 174.797 146.298 175.438 145.824C176.108 145.322 176.721 144.792 177.279 144.234C177.865 143.648 178.381 143.118 178.827 142.644C179.106 142.895 179.343 143.132 179.539 143.356C178.283 145.029 176.903 146.424 175.396 147.54C173.918 148.628 172.509 149.325 171.17 149.632C169.246 149.409 167.739 148.711 166.651 147.54C165.591 146.34 165.061 144.904 165.061 143.23C165.061 142.086 165.215 140.929 165.522 139.757C165.856 138.558 166.303 137.414 166.861 136.326C167.446 135.21 168.116 134.164 168.869 133.188C169.65 132.212 170.473 131.361 171.338 130.636C172.23 129.91 173.137 129.338 174.057 128.92C175.006 128.502 175.94 128.292 176.861 128.292C178.144 128.46 179.343 129.255 180.459 130.677ZM177.572 132.058C176.819 132.17 176.038 132.477 175.229 132.979C174.42 133.481 173.653 134.15 172.928 134.987C172.23 135.824 171.589 136.8 171.003 137.916C170.417 139.032 169.957 140.231 169.622 141.514C171.854 140.399 173.709 139.032 175.187 137.414C176.666 135.768 177.461 133.983 177.572 132.058Z" fill="#A37F45"/>
<path d="M144.535 151.336V154.78C144.535 154.908 144.563 155 144.619 155.056C144.683 155.112 144.819 155.14 145.027 155.14H145.915V156.28H144.391C143.935 156.28 143.567 156.232 143.287 156.136C143.015 156.04 142.811 155.872 142.675 155.632C142.547 155.384 142.463 155.12 142.423 154.84C142.391 154.56 142.375 154.184 142.375 153.712C142.375 153.232 142.391 152.868 142.423 152.62C142.463 152.372 142.547 152.14 142.675 151.924C142.811 151.708 143.015 151.556 143.287 151.468C143.567 151.38 143.935 151.336 144.391 151.336H144.535ZM146.395 155.14H146.539C146.883 155.14 147.147 155.148 147.331 155.164C147.523 155.172 147.707 155.208 147.883 155.272C148.059 155.328 148.179 155.396 148.243 155.476C148.315 155.556 148.379 155.696 148.435 155.896C148.499 156.088 148.535 156.296 148.543 156.52C148.551 156.744 148.555 157.064 148.555 157.48C148.555 157.896 148.551 158.228 148.543 158.476C148.535 158.716 148.499 158.948 148.435 159.172C148.379 159.388 148.315 159.54 148.243 159.628C148.179 159.716 148.059 159.796 147.883 159.868C147.707 159.932 147.523 159.972 147.331 159.988C147.147 159.996 146.883 160 146.539 160H146.395V155.14ZM142.543 157.324H144.055C144.167 157.324 144.235 157.34 144.259 157.372C144.283 157.404 144.295 157.472 144.295 157.576V158.512C144.295 158.64 144.311 158.732 144.343 158.788C144.383 158.836 144.475 158.86 144.619 158.86H145.915V160H144.151C143.567 160 143.123 159.9 142.819 159.7C142.523 159.5 142.375 159.152 142.375 158.656V157.576C142.375 157.408 142.431 157.324 142.543 157.324ZM145.015 151.324H146.539C147.123 151.324 147.563 151.424 147.859 151.624C148.163 151.824 148.315 152.172 148.315 152.668V153.748C148.315 153.916 148.259 154 148.147 154H146.635C146.523 154 146.455 153.984 146.431 153.952C146.407 153.92 146.395 153.852 146.395 153.748V152.812C146.395 152.684 146.375 152.596 146.335 152.548C146.303 152.492 146.215 152.464 146.071 152.464H145.015V151.324ZM152.947 154H154.627C155.499 154 155.935 154.428 155.935 155.284V160H154.567C154.439 160 154.335 159.956 154.255 159.868C154.175 159.78 154.135 159.664 154.135 159.52V155.26C154.135 155.132 154.103 155.04 154.039 154.984C153.983 154.928 153.851 154.9 153.643 154.9H152.947V154ZM150.847 151.324H151.579C151.931 151.324 152.195 151.412 152.371 151.588C152.555 151.756 152.647 151.976 152.647 152.248V160H151.279C151.151 160 151.047 159.956 150.967 159.868C150.887 159.78 150.847 159.664 150.847 159.52V151.324ZM160.4 154H161.564C161.868 154 162.116 154.016 162.308 154.048C162.5 154.072 162.668 154.132 162.812 154.228C162.956 154.324 163.064 154.432 163.136 154.552C163.208 154.664 163.264 154.848 163.304 155.104C163.368 155.464 163.4 155.968 163.4 156.616C163.4 157.264 163.396 157.704 163.388 157.936C163.38 158.16 163.364 158.4 163.34 158.656C163.324 158.912 163.288 159.1 163.232 159.22C163.184 159.34 163.116 159.464 163.028 159.592C162.948 159.712 162.84 159.796 162.704 159.844C162.408 159.948 162.028 160 161.564 160H161.54V155.476C161.54 155.46 161.54 155.412 161.54 155.332C161.54 155.252 161.536 155.184 161.528 155.128C161.488 154.976 161.328 154.9 161.048 154.9H160.4V154ZM160.04 154V158.524C160.04 158.54 160.04 158.588 160.04 158.668C160.04 158.748 160.048 158.816 160.064 158.872C160.096 159.024 160.252 159.1 160.532 159.1H161.18V160H160.016C159.712 160 159.464 159.988 159.272 159.964C159.08 159.932 158.912 159.868 158.768 159.772C158.624 159.676 158.516 159.572 158.444 159.46C158.372 159.34 158.312 159.152 158.264 158.896C158.208 158.536 158.18 158.032 158.18 157.384C158.18 156.736 158.184 156.3 158.192 156.076C158.2 155.844 158.212 155.6 158.228 155.344C158.252 155.088 158.288 154.9 158.336 154.78C158.392 154.66 158.46 154.54 158.54 154.42C158.628 154.292 158.74 154.204 158.876 154.156C159.172 154.052 159.552 154 160.016 154H160.04ZM167.818 154H168.982C169.774 154 170.262 154.136 170.446 154.408C170.534 154.536 170.602 154.66 170.65 154.78C170.706 154.9 170.742 155.088 170.758 155.344C170.798 155.808 170.818 156.324 170.818 156.892C170.818 157.46 170.814 157.872 170.806 158.128C170.798 158.376 170.77 158.632 170.722 158.896C170.682 159.152 170.626 159.34 170.554 159.46C170.482 159.572 170.374 159.676 170.23 159.772C170.086 159.868 169.918 159.932 169.726 159.964C169.534 159.988 169.286 160 168.982 160H167.818V159.1H168.466C168.674 159.1 168.806 159.072 168.862 159.016C168.926 158.96 168.958 158.872 168.958 158.752V155.26C168.958 155.132 168.926 155.04 168.862 154.984C168.806 154.928 168.674 154.9 168.466 154.9H167.818V154ZM167.458 162.676H166.726C166.374 162.676 166.106 162.588 165.922 162.412C165.746 162.244 165.658 162.024 165.658 161.752V154.924C165.658 154.652 165.746 154.432 165.922 154.264C166.106 154.088 166.374 154 166.726 154H167.458V162.676ZM174.731 154V156.196C174.731 156.332 174.751 156.428 174.791 156.484C174.831 156.532 174.935 156.556 175.103 156.556H175.775V157.456H174.239C173.367 157.456 172.931 157.028 172.931 156.172V155.332C172.931 154.804 173.063 154.452 173.327 154.276C173.599 154.092 174.067 154 174.731 154ZM174.755 158.104V158.74C174.755 158.876 174.775 158.972 174.815 159.028C174.855 159.076 174.959 159.1 175.127 159.1H175.775V160H174.263C173.391 160 172.955 159.572 172.955 158.716V158.356C172.955 158.236 172.967 158.168 172.991 158.152C173.023 158.136 173.043 158.128 173.051 158.128C173.059 158.12 173.079 158.116 173.111 158.116C173.151 158.108 173.175 158.104 173.183 158.104C173.711 158.104 174.235 158.104 174.755 158.104ZM176.135 156.556H176.627C177.499 156.556 177.935 156.984 177.935 157.84V158.668C177.935 159.196 177.799 159.552 177.527 159.736C177.263 159.912 176.799 160 176.135 160V156.556ZM175.091 154H176.603C177.475 154 177.911 154.428 177.911 155.284V155.908C177.375 155.908 176.967 155.908 176.687 155.908C176.407 155.908 176.263 155.908 176.255 155.908C176.247 155.9 176.231 155.896 176.207 155.896C176.191 155.888 176.179 155.88 176.171 155.872C176.163 155.864 176.155 155.856 176.147 155.848C176.139 155.832 176.135 155.816 176.135 155.8C176.119 155.736 176.111 155.688 176.111 155.656V155.26C176.111 155.124 176.091 155.032 176.051 154.984C176.011 154.928 175.907 154.9 175.739 154.9H175.091V154Z" fill="#603D1F"/>
<rect x="69.5878" y="112" width="122" height="1" fill="#624D32"/>
<path d="M103.931 78C103.931 63.2776 115.865 51.3429 130.588 51.3429C145.31 51.3429 157.245 63.2776 157.245 78C157.245 92.7224 145.31 104.657 130.588 104.657C115.865 104.657 103.931 92.7224 103.931 78ZM130.248 71.1327C130.28 71.1676 130.319 71.1954 130.363 71.2145C130.407 71.2335 130.454 71.2433 130.501 71.2433C130.549 71.2433 130.596 71.2335 130.64 71.2145C130.683 71.1954 130.723 71.1676 130.755 71.1327C133.075 68.6634 135.211 66.1997 136.224 64.488C138.014 61.4518 138.354 59.6501 137.644 57.5807C137.161 56.1669 135.819 54.7358 134.393 54.7358C132.55 54.7358 130.641 57.121 130.504 60.8317C130.362 57.1452 127.85 54.7354 126.007 54.7354C124.581 54.7354 123.239 56.1669 122.756 57.5807C122.046 59.6505 122.38 61.4518 124.176 64.488C125.219 66.1997 127.892 68.6634 130.248 71.1327ZM119.505 71.1921C119.851 74.4847 123.203 78.2068 126.412 78.9105C127.644 79.2106 128.769 79.8442 129.663 80.7419C129.9 81.0073 130.114 81.2926 130.301 81.5949C130.337 81.6607 130.427 81.8037 130.474 81.7558C130.522 81.8033 130.606 81.6607 130.642 81.5949C130.829 81.2925 131.042 81.0071 131.28 80.7419C132.174 79.8444 133.299 79.2109 134.531 78.9109C137.746 78.2068 141.068 74.4851 141.438 71.1925C141.505 70.1076 141.341 69.0208 140.955 68.0046C140.569 66.9883 139.971 66.066 139.201 65.2991C138.908 65.0772 138.735 65.5614 138.466 66.315C138.128 67.2628 137.638 68.6365 136.564 69.57C135.193 70.7626 134.328 70.4706 132.908 71.5978C131.77 72.5335 130.923 73.7755 130.469 75.1769C130.016 73.7758 129.172 72.5337 128.035 71.5978C126.615 70.4706 125.745 70.7511 124.379 69.57C123.303 68.6369 122.813 67.264 122.475 66.317C122.205 65.5618 122.032 65.0768 121.736 65.2991C120.968 66.0672 120.372 66.9899 119.987 68.0059C119.603 69.022 119.438 70.1082 119.505 71.1925V71.1921ZM150.409 68.3472C148.023 66.4743 144.712 66.021 144.313 66.7247C144.127 67.0524 144.639 67.5037 145.41 68.1848C146.577 69.2157 148.341 70.7733 149.192 73.2263C150.859 78.0535 147.821 83.0356 147.363 83.7856L147.361 83.7896C145.53 86.7724 141.993 90.0353 138.825 90.6974C137.223 90.9809 135.7 91.6031 134.357 92.5224C133.934 92.8302 133.535 93.1712 133.165 93.5422C132.022 94.6266 131.123 95.9423 130.528 97.4014C130.005 95.946 129.161 94.6269 128.059 93.5422C127.689 93.1712 127.29 92.8302 126.866 92.5224C125.524 91.6031 124 90.9809 122.398 90.6974C119.177 90.0353 115.676 86.7843 113.815 83.79L113.812 83.7852C113.355 83.0356 110.317 78.0535 111.984 73.2263C112.832 70.7812 114.596 69.2256 115.765 68.1943C116.544 67.5076 117.058 67.054 116.863 66.7247C116.463 66.021 113.183 66.4743 110.767 68.3472C106.848 71.389 106.132 77.4374 107.11 81.7859C107.62 83.9716 108.566 86.0317 109.892 87.842C111.219 89.6523 112.898 91.1754 114.829 92.3195C118.927 94.7055 121.664 93.5724 125.804 96.5908C127.629 97.9364 129.168 99.6312 130.331 101.577C130.349 101.607 130.374 101.631 130.403 101.648C130.433 101.665 130.467 101.674 130.501 101.674C130.536 101.674 130.57 101.665 130.599 101.648C130.629 101.631 130.654 101.607 130.671 101.577C131.906 99.6342 133.497 97.9424 135.359 96.5904C139.499 93.5723 142.237 94.6818 146.335 92.3195C148.268 91.1766 149.949 89.654 151.278 87.8437C152.606 86.0333 153.555 83.9726 154.065 81.7859C155.044 77.4374 154.328 71.389 150.409 68.3472ZM117.065 70.1782C116.254 70.1782 115.569 72.5642 115.443 73.0234C114.957 74.877 114.924 76.8205 115.348 78.6894C115.771 80.5583 116.639 82.2977 117.877 83.7603C120.042 86.1459 123.335 87.5002 124.176 87.822C125.013 88.0981 125.829 88.4371 126.615 88.8363C128.046 89.6312 129.296 90.7161 130.283 92.0215C130.31 92.054 130.343 92.0803 130.381 92.0983C130.418 92.1163 130.46 92.1256 130.501 92.1256C130.543 92.1256 130.584 92.1163 130.622 92.0983C130.66 92.0803 130.693 92.054 130.719 92.0215C131.784 90.7238 133.088 89.6423 134.56 88.8359C135.347 88.4369 136.162 88.0979 137 87.822C137.841 87.5002 141.134 86.1638 143.299 83.7603C144.537 82.2977 145.405 80.5583 145.828 78.6894C146.252 76.8205 146.219 74.877 145.733 73.0234C145.607 72.5464 144.921 70.1484 144.11 70.1786C142.917 70.2202 142.869 75.505 140.251 78.7081C139.099 80.0775 137.726 81.2448 136.189 82.1615C134.513 83.1101 133.57 83.1695 132.532 84.1716C131.431 85.2681 130.719 86.6946 130.504 88.2336C130.357 86.7091 129.702 85.2784 128.643 84.1716C127.594 83.1457 126.663 83.0859 124.987 82.1378C123.45 81.221 122.077 80.0538 120.925 78.6843C118.306 75.505 118.264 70.2202 117.065 70.1782ZM160.582 78.5912L160.575 78.8907L160.565 79.1903L160.552 79.4898L160.536 79.7893L160.518 80.0885L160.496 80.3876L160.471 80.6868L160.444 80.9855L160.413 81.2839L160.379 81.5819L160.343 81.8798L160.303 82.177L160.26 82.4742L160.215 82.7709L160.166 83.0669L160.114 83.3625L160.059 83.6577L160.002 83.9521L159.941 84.2461L159.877 84.5393L159.81 84.8321L159.741 85.1241L159.668 85.4153L159.592 85.7057L159.514 85.9954L159.432 86.2842L159.348 86.5723L159.26 86.8591L159.17 87.1452L159.077 87.4305L158.981 87.715L158.882 87.9979L158.78 88.2804L158.676 88.5617L158.569 88.8418L158.458 89.1208L158.346 89.3985L158.23 89.6755L158.162 89.8348L158.043 90.1082L157.921 90.382L157.796 90.6546L157.668 90.926L157.538 91.1962L157.405 91.4648L157.269 91.7323L157.13 91.9985L156.989 92.2632L156.845 92.5267L156.699 92.7882L156.55 93.0489L156.399 93.3077L156.244 93.5652L156.087 93.8208L155.927 94.0752L155.765 94.3275L155.601 94.5784L155.433 94.828L155.264 95.0752L155.091 95.3209L154.917 95.5649L154.74 95.807L154.56 96.0476L154.377 96.2861L154.193 96.5226L154.006 96.7576L153.817 96.9902L153.626 97.2212L153.432 97.4502L153.236 97.6776L153.038 97.9027L152.837 98.1257L152.635 98.3468L152.43 98.5659L152.223 98.7831L152.014 98.9978L151.804 99.211L151.681 99.333L151.468 99.5418L151.252 99.7495L151.034 99.9555L150.813 100.159L150.591 100.36L150.367 100.559L150.141 100.756L149.912 100.951L149.683 101.143L149.45 101.334L149.217 101.521L148.981 101.707L148.743 101.89L148.503 102.071L148.262 102.249L148.019 102.425L147.774 102.599L147.527 102.769L147.279 102.938L147.029 103.103L146.777 103.267L146.523 103.428L146.268 103.586L146.012 103.741L145.754 103.894L145.494 104.045L145.232 104.192L144.97 104.337L144.706 104.48L144.44 104.619L144.173 104.756L143.905 104.89L143.635 105.022L143.365 105.151L143.093 105.277L142.819 105.401L142.545 105.522L142.269 105.64L141.997 105.753L141.72 105.866L141.44 105.976L141.16 106.083L140.879 106.188L140.597 106.29L140.314 106.389L140.03 106.485L139.744 106.578L139.458 106.669L139.172 106.756L138.883 106.841L138.595 106.923L138.305 107.002L138.015 107.077L137.723 107.15L137.432 107.22L137.139 107.287L136.846 107.35L136.552 107.411L136.257 107.469L135.962 107.524L135.667 107.576L135.371 107.625L135.074 107.67L134.777 107.713L134.479 107.753L134.182 107.79L133.884 107.824L133.585 107.855L133.286 107.882L132.987 107.907L132.688 107.929L132.389 107.948L132.089 107.964L131.79 107.977L131.49 107.987L131.19 107.994L130.891 107.998L130.591 108L130.296 107.999L129.997 107.994L129.697 107.987L129.398 107.977L129.098 107.964L128.798 107.948L128.499 107.93L128.2 107.908L127.901 107.884L127.603 107.856L127.304 107.825L127.006 107.792L126.708 107.755L126.411 107.715L126.114 107.672L125.817 107.627L125.521 107.578L125.225 107.527L124.93 107.471L124.636 107.414L124.342 107.353L124.049 107.29L123.756 107.223L123.464 107.153L123.173 107.08L122.882 107.005L122.593 106.925L122.304 106.844L122.016 106.76L121.729 106.673L121.443 106.582L121.157 106.489L120.873 106.393L120.59 106.294L120.307 106.192L120.026 106.088L119.746 105.981L119.467 105.871L119.189 105.758L118.913 105.642L118.753 105.574L118.48 105.455L118.206 105.333L117.933 105.208L117.662 105.08L117.392 104.95L117.123 104.817L116.855 104.681L116.59 104.543L116.325 104.402L116.061 104.258L115.8 104.111L115.539 103.962L115.28 103.81L115.023 103.656L114.767 103.499L114.513 103.34L114.26 103.177L114.009 103.013L113.76 102.846L113.513 102.676L113.267 102.504L113.023 102.329L112.781 102.151L112.54 101.972L112.302 101.79L112.065 101.605L111.83 101.418L111.598 101.229L111.367 101.038L111.138 100.844L110.911 100.648L110.686 100.45L110.462 100.249L110.241 100.047L110.022 99.8422L109.805 99.6353L109.59 99.4265L109.377 99.2158L109.255 99.0929L109.046 98.8797L108.838 98.6634L108.633 98.4455L108.429 98.2252L108.228 98.0033L108.029 97.779L107.832 97.5528L107.637 97.3246L107.444 97.0948L107.254 96.8626L107.066 96.6288L106.881 96.3931L106.698 96.1553L106.517 95.9156L106.339 95.6739L106.163 95.431L105.989 95.1862L105.818 94.9393L105.65 94.6913L105.484 94.4409L105.321 94.1893L105.16 93.9357L105.002 93.6805L104.846 93.4238L104.694 93.1658L104.543 92.9059L104.396 92.6444L104.251 92.3821L104.108 92.1178L103.969 91.8523L103.832 91.5853L103.697 91.317L103.566 91.0476L103.437 90.7766L103.311 90.5048L103.187 90.2314L103.066 89.9572L102.948 89.6814L102.834 89.4092L102.722 89.1319L102.612 88.8525L102.504 88.5724L102.4 88.2915L102.298 88.0094L102.199 87.7261L102.103 87.442L102.009 87.1567L101.919 86.8706L101.832 86.5834L101.747 86.2957L101.665 86.0069L101.587 85.7176L101.511 85.4268L101.438 85.1356L101.368 84.844L101.301 84.5511L101.237 84.2579L101.177 83.9639L101.119 83.6696L101.064 83.3744L101.012 83.0788L100.963 82.7824L100.917 82.486L100.875 82.1889L100.835 81.8917L100.798 81.5937L100.764 81.2958L100.733 80.997L100.705 80.6983L100.681 80.3995L100.659 80.1004L100.64 79.8012L100.624 79.5017L100.611 79.2021L100.601 78.9026L100.594 78.6027L100.589 78.3031L100.588 78.0036L100.589 77.7084L100.593 77.4088L100.6 77.1093L100.61 76.8097L100.623 76.5102L100.639 76.2107L100.658 75.9115L100.68 75.6124L100.705 75.3136L100.732 75.0149L100.763 74.7161L100.797 74.4182L100.833 74.1202L100.873 73.823L100.915 73.5259L100.961 73.2295L101.01 72.9331L101.062 72.6375L101.116 72.3423L101.174 72.0479L101.235 71.7539L101.299 71.4607L101.365 71.1679L101.435 70.8759L101.508 70.5847L101.583 70.2943L101.662 70.005L101.744 69.7158L101.828 69.4281L101.916 69.1409L102.006 68.8548L102.099 68.5695L102.195 68.2854L102.294 68.0021L102.396 67.7196L102.5 67.4383L102.607 67.1586L102.717 66.8796L102.83 66.6015L102.945 66.3249L103.013 66.1652L103.132 65.8918L103.255 65.6184L103.38 65.3454L103.508 65.074L103.638 64.8042L103.771 64.5352L103.907 64.2677L104.045 64.0019L104.186 63.7368L104.33 63.4737L104.477 63.2118L104.626 62.9511L104.777 62.6923L104.932 62.4348L105.088 62.1792L105.248 61.9248L105.411 61.6725L105.575 61.4216L105.742 61.172L105.912 60.9248L106.084 60.6791L106.259 60.4351L106.436 60.193L106.616 59.9525L106.798 59.7139L106.982 59.4774L107.169 59.2424L107.358 59.0098L107.55 58.7788L107.744 58.5498L107.94 58.3228L108.138 58.0977L108.338 57.8747L108.541 57.6536L108.746 57.4345L108.952 57.2173L109.161 57.0022L109.372 56.7894L109.495 56.667L109.708 56.4586L109.924 56.2505L110.142 56.0449L110.363 55.8416L110.584 55.64L110.809 55.4411L111.035 55.2441L111.263 55.0492L111.493 54.8566L111.725 54.6664L111.959 54.4786L112.195 54.2932L112.433 54.1101L112.672 53.9291L112.914 53.7508L113.157 53.5749L113.402 53.4017L113.648 53.2309L113.897 53.0625L114.147 52.8965L114.399 52.7333L114.652 52.5724L114.907 52.4143L115.164 52.2586L115.422 52.1061L115.682 51.9555L115.943 51.8081L116.206 51.6631L116.47 51.5204L116.735 51.381L117.002 51.2439L117.271 51.1096L117.54 50.978L117.811 50.8492L118.083 50.7228L118.356 50.5992L118.631 50.4784L118.906 50.3603L119.179 50.2466L119.456 50.1341L119.735 50.0239L120.015 49.9165L120.297 49.8119L120.578 49.7101L120.862 49.611L121.146 49.5152L121.431 49.4216L121.717 49.3313L122.004 49.2437L122.292 49.1593L122.581 49.0773L122.871 48.9989L123.161 48.9228L123.452 48.8503L123.744 48.7802L124.037 48.7136L124.33 48.6494L124.624 48.5888L124.919 48.5309L125.213 48.4759L125.509 48.4244L125.805 48.3752L126.102 48.3297L126.399 48.2869L126.696 48.2472L126.994 48.21L127.292 48.1763L127.591 48.1454L127.889 48.1177L128.188 48.0931L128.487 48.0709L128.787 48.0523L129.086 48.0365L129.386 48.0234L129.685 48.0131L129.985 48.0059L130.285 48.0016L130.585 48L130.879 48.0016L131.179 48.0055L131.478 48.0127L131.778 48.023L132.078 48.0357L132.377 48.0515L132.676 48.0701L132.976 48.0919L133.275 48.1169L133.573 48.1446L133.872 48.1751L134.17 48.2088L134.468 48.2453L134.765 48.2849L135.062 48.3277L135.359 48.3736L135.655 48.4224L135.95 48.4739L136.245 48.5286L136.54 48.5864L136.834 48.647L137.127 48.7108L137.42 48.7778L137.712 48.8475L138.003 48.92L138.294 48.9957L138.583 49.0742L138.872 49.1558L139.16 49.2402L139.447 49.3277L139.733 49.4181L140.018 49.5112L140.303 49.6071L140.586 49.7061L140.868 49.808L141.149 49.9122L141.43 50.0195L141.709 50.1297L141.986 50.2422L142.263 50.3575L142.423 50.4257L142.696 50.5445L142.97 50.6674L143.242 50.7922L143.514 50.9198L143.784 51.0501L144.053 51.1833L144.32 51.3192L144.586 51.4574L144.851 51.5985L145.114 51.7423L145.376 51.8889L145.637 52.0379L145.896 52.1897L146.153 52.3442L146.409 52.5011L146.663 52.6604L146.916 52.8228L147.167 52.9873L147.416 53.1545L147.663 53.3244L147.909 53.4968L148.153 53.6711L148.395 53.8486L148.635 54.0281L148.874 54.2104L149.11 54.3946L149.345 54.5817L149.578 54.7707L149.809 54.9624L150.038 55.1562L150.265 55.3519L150.49 55.55L150.714 55.7505L150.935 55.9534L151.154 56.1578L151.371 56.3647L151.586 56.5735L151.799 56.7846L151.921 56.9075L152.13 57.1203L152.337 57.3366L152.543 57.5545L152.747 57.7748L152.948 57.9967L153.147 58.2214L153.344 58.4472L153.539 58.6754L153.731 58.9052L153.921 59.1374L154.11 59.3712L154.295 59.6073L154.478 59.8451L154.659 60.0844L154.837 60.3261L155.013 60.569L155.186 60.8138L155.357 61.0607L155.526 61.3091L155.692 61.5591L155.855 61.8111L156.015 62.0647L156.174 62.3195L156.329 62.5762L156.482 62.8346L156.633 63.0941L156.78 63.3556L156.925 63.6183L157.067 63.8822L157.207 64.1477L157.344 64.4147L157.478 64.683L157.61 64.9524L157.739 65.2234L157.865 65.4952L157.989 65.7686L158.109 66.0432L158.227 66.3186L158.341 66.5908L158.454 66.8685L158.564 67.1475L158.671 67.4276L158.776 67.7089L158.878 67.9906L158.977 68.2739L159.073 68.558L159.166 68.8433L159.256 69.1294L159.344 69.4166L159.429 69.7043L159.51 69.9935L159.589 70.2828L159.665 70.5732L159.738 70.8644L159.808 71.1564L159.875 71.4489L159.938 71.7421L159.999 72.0361L160.057 72.3304L160.112 72.6256L160.163 72.9212L160.213 73.2176L160.259 73.514L160.301 73.8111L160.341 74.1083L160.378 74.4063L160.411 74.7046L160.442 75.003L160.47 75.3017L160.495 75.6005L160.517 75.8996L160.536 76.1992L160.552 76.4983L160.565 76.7983L160.575 77.0974L160.582 77.3973L160.586 77.6969L160.588 77.9968V78.0036L160.587 78.2916L160.582 78.5912ZM159.179 77.7171L159.175 77.431L159.168 77.145L159.159 76.8589L159.146 76.5732L159.131 76.2875L159.113 76.0022L159.092 75.717L159.069 75.4317L159.042 75.1472L159.013 74.8627L158.981 74.5786L158.946 74.2949L158.908 74.0116L158.867 73.7287L158.824 73.4462L158.777 73.1641L158.728 72.8828L158.676 72.6015L158.621 72.3213L158.563 72.0416L158.502 71.7623L158.439 71.4837L158.372 71.2056L158.303 70.9282L158.231 70.6521L158.156 70.3763L158.078 70.1009L157.998 69.8267L157.914 69.5533L157.828 69.2807L157.74 69.0089L157.648 68.7383L157.554 68.4681L157.457 68.199L157.357 67.9312L157.255 67.6641L157.15 67.3979L157.042 67.1328L156.934 66.8733L156.821 66.6102L156.706 66.3487L156.588 66.0876L156.468 65.828L156.345 65.5701L156.219 65.3129L156.092 65.0574L155.961 64.803L155.828 64.5494L155.692 64.2982L155.555 64.0478L155.414 63.799L155.271 63.5513L155.125 63.3057L154.977 63.0608L154.827 62.8179L154.674 62.5766L154.518 62.3369L154.36 62.0984L154.2 61.8619L154.038 61.6269L153.872 61.3935L153.705 61.1621L153.535 60.9323L153.363 60.7037L153.189 60.4774L153.012 60.2528L152.833 60.0297L152.651 59.8086L152.468 59.5891L152.283 59.3716L152.095 59.156L151.905 58.9421L151.713 58.7301L151.519 58.5201L151.322 58.3117L151.124 58.1057L150.923 57.8996L150.808 57.7847L150.605 57.583L150.4 57.3837L150.192 57.1864L149.984 56.9911L149.772 56.7977L149.56 56.6064L149.345 56.4174L149.129 56.2303L148.911 56.0457L148.69 55.8634L148.469 55.6828L148.245 55.5045L148.02 55.3289L147.793 55.1554L147.564 54.9842L147.333 54.8154L147.101 54.649L146.867 54.485L146.631 54.3233L146.393 54.164L146.155 54.0071L145.914 53.8526L145.673 53.7005L145.429 53.5511L145.184 53.4037L144.937 53.2595L144.689 53.1168L144.44 52.9777L144.189 52.8407L143.937 52.7059L143.683 52.574L143.428 52.4444L143.172 52.3176L142.914 52.1932L142.656 52.0712L142.396 51.9523L142.134 51.835L141.871 51.7201L141.721 51.6567L141.457 51.5466L141.192 51.4388L140.926 51.3338L140.659 51.2316L140.391 51.1317L140.122 51.0351L139.852 50.9408L139.581 50.8492L139.309 50.7601L139.037 50.6741L138.763 50.5909L138.489 50.5105L138.214 50.4324L137.938 50.3575L137.662 50.2854L137.385 50.2161L137.107 50.1499L136.828 50.0865L136.549 50.0255L136.269 49.9676L135.989 49.9122L135.707 49.8607L135.426 49.8111L135.144 49.7644L134.862 49.7208L134.579 49.6804L134.295 49.6423L134.012 49.6075L133.727 49.5754L133.443 49.5461L133.158 49.5195L132.873 49.4957L132.588 49.4751L132.303 49.4569L132.017 49.4419L131.731 49.4296L131.445 49.4201L131.159 49.4129L130.873 49.409L130.591 49.4078L130.305 49.409L130.019 49.4129L129.733 49.4197L129.447 49.4296L129.161 49.4415L128.875 49.4569L128.59 49.4747L128.305 49.4957L128.019 49.5195L127.735 49.5457L127.45 49.575L127.166 49.6067L126.883 49.6423L126.599 49.68L126.316 49.7204L126.034 49.764L125.752 49.8107L125.471 49.8599L125.19 49.9122L124.909 49.9668L124.629 50.0247L124.35 50.0857L124.071 50.1491L123.794 50.2157L123.516 50.285L123.24 50.3571L122.964 50.432L122.689 50.5097L122.414 50.5901L122.141 50.6733L121.868 50.7593L121.597 50.8484L121.326 50.9396L121.056 51.0343L120.787 51.1309L120.519 51.2308L120.252 51.333L119.986 51.438L119.721 51.5458L119.461 51.654L119.198 51.7669L118.936 51.8818L118.675 51.9999L118.416 52.1199L118.158 52.2427L117.901 52.3684L117.645 52.4963L117.391 52.6271L117.137 52.7598L116.886 52.8953L116.636 53.0332L116.387 53.1739L116.139 53.3169L115.893 53.4627L115.649 53.6105L115.406 53.7611L115.164 53.914L114.925 54.0697L114.687 54.2274L114.45 54.3879L114.215 54.5504L113.981 54.7156L113.75 54.8832L113.52 55.0528L113.292 55.2251L113.065 55.3995L112.841 55.5762L112.617 55.7553L112.396 55.9363L112.177 56.1198L111.959 56.3052L111.744 56.493L111.53 56.6832L111.318 56.875L111.108 57.0691L110.899 57.2657L110.693 57.4638L110.487 57.6651L110.372 57.78L110.171 57.9832L109.972 58.1881L109.774 58.3953L109.579 58.6045L109.385 58.8153L109.194 59.0281L109.005 59.2424L108.818 59.4592L108.633 59.6771L108.451 59.8974L108.271 60.1193L108.093 60.3427L107.917 60.5686L107.743 60.7952L107.572 61.0242L107.403 61.2548L107.237 61.487L107.073 61.7212L106.911 61.9569L106.752 62.1943L106.595 62.4328L106.44 62.6733L106.288 62.9154L106.139 63.1591L105.991 63.4039L105.847 63.6508L105.705 63.8988L105.566 64.1485L105.428 64.3993L105.294 64.6513L105.162 64.9048L105.032 65.16L104.905 65.416L104.781 65.6735L104.659 65.9326L104.54 66.1926L104.423 66.4537L104.308 66.7172L104.245 66.8669L104.134 67.1308L104.027 67.3959L103.922 67.6618L103.819 67.9288L103.72 68.1971L103.623 68.4661L103.529 68.7355L103.437 69.0065L103.348 69.2783L103.262 69.5509L103.179 69.8243L103.098 70.0985L103.021 70.3735L102.945 70.6493L102.873 70.9258L102.804 71.2032L102.738 71.4813L102.674 71.7599L102.613 72.0388L102.555 72.319L102.5 72.5991L102.448 72.8804L102.399 73.1617L102.352 73.4438L102.309 73.7263L102.268 74.0092L102.23 74.2925L102.195 74.5762L102.163 74.8603L102.134 75.1448L102.107 75.4297L102.084 75.7146L102.063 75.9999L102.045 76.2851L102.03 76.5708L102.017 76.8569L102.008 77.1426L102.001 77.429L101.997 77.7151L101.996 77.9964L101.997 78.2829L102.001 78.569L102.007 78.8551L102.017 79.1411L102.029 79.4268L102.045 79.7125L102.063 79.9978L102.084 80.283L102.107 80.5683L102.133 80.8528L102.163 81.1373L102.195 81.4214L102.23 81.7051L102.268 81.9884L102.309 82.2713L102.352 82.5538L102.399 82.8359L102.448 83.1172L102.5 83.3985L102.555 83.6787L102.613 83.9588L102.673 84.2377L102.737 84.5163L102.803 84.7944L102.873 85.0718L102.945 85.348L103.02 85.6241L103.097 85.8991L103.178 86.1733L103.261 86.4467L103.347 86.7193L103.436 86.9911L103.527 87.2621L103.622 87.5315L103.719 87.801L103.819 88.0688L103.921 88.3359L104.026 88.6021L104.134 88.8676L104.242 89.1271L104.355 89.3898L104.47 89.6517L104.588 89.9124L104.708 90.172L104.831 90.4303L104.956 90.687L105.084 90.9426L105.215 91.1974L105.348 91.4502L105.483 91.7022L105.621 91.9522L105.762 92.2014L105.905 92.4487L106.05 92.6943L106.199 92.9392L106.349 93.1821L106.502 93.4238L106.658 93.6635L106.815 93.9016L106.976 94.1382L107.138 94.3731L107.303 94.6065L107.471 94.8383L107.641 95.0681L107.813 95.2963L107.987 95.5226L108.164 95.7476L108.343 95.9703L108.524 96.1914L108.708 96.4109L108.893 96.6288L109.081 96.844L109.271 97.0579L109.463 97.2699L109.657 97.4799L109.853 97.6883L110.052 97.8943L110.253 98.1004L110.368 98.2153L110.571 98.4174L110.776 98.6167L110.983 98.814L111.192 99.0093L111.403 99.2023L111.616 99.3936L111.83 99.5827L112.047 99.7697L112.265 99.9543L112.485 100.137L112.707 100.317L112.931 100.496L113.156 100.671L113.383 100.845L113.612 101.016L113.843 101.185L114.075 101.351L114.309 101.515L114.545 101.677L114.782 101.836L115.021 101.993L115.261 102.148L115.503 102.3L115.747 102.449L115.992 102.596L116.239 102.741L116.487 102.883L116.736 103.023L116.987 103.16L117.239 103.294L117.493 103.426L117.748 103.556L118.004 103.682L118.262 103.807L118.52 103.929L118.78 104.048L119.041 104.165L119.305 104.28L119.455 104.343L119.719 104.453L119.984 104.561L120.25 104.666L120.517 104.768L120.785 104.868L121.054 104.965L121.324 105.059L121.595 105.151L121.866 105.24L122.139 105.326L122.412 105.409L122.686 105.49L122.961 105.568L123.237 105.643L123.514 105.715L123.791 105.784L124.069 105.85L124.348 105.914L124.627 105.975L124.907 106.032L125.187 106.088L125.468 106.14L125.749 106.189L126.032 106.236L126.314 106.279L126.597 106.32L126.88 106.358L127.164 106.393L127.448 106.425L127.733 106.454L128.017 106.48L128.302 106.504L128.588 106.525L128.873 106.543L129.159 106.558L129.445 106.57L129.73 106.58L130.017 106.587L130.303 106.591L130.584 106.593L130.871 106.591L131.157 106.587L131.443 106.58L131.729 106.57L132.015 106.559L132.3 106.543L132.586 106.525L132.871 106.505L133.156 106.481L133.441 106.454L133.725 106.425L134.009 106.393L134.293 106.358L134.576 106.32L134.859 106.28L135.142 106.236L135.424 106.19L135.705 106.14L135.986 106.088L136.266 106.033L136.547 105.975L136.826 105.915L137.104 105.851L137.382 105.784L137.659 105.715L137.936 105.643L138.212 105.568L138.487 105.49L138.761 105.41L139.034 105.327L139.307 105.241L139.579 105.152L139.85 105.06L140.119 104.966L140.389 104.869L140.657 104.769L140.924 104.667L141.19 104.562L141.455 104.455L141.715 104.346L141.978 104.234L142.239 104.118L142.5 104.001L142.76 103.88L143.018 103.757L143.275 103.632L143.531 103.504L143.785 103.373L144.038 103.24L144.29 103.105L144.54 102.967L144.789 102.826L145.036 102.683L145.282 102.537L145.527 102.389L145.77 102.239L146.012 102.086L146.251 101.93L146.489 101.773L146.726 101.612L146.961 101.45L147.194 101.284L147.426 101.117L147.656 100.947L147.884 100.775L148.11 100.601L148.335 100.424L148.558 100.245L148.78 100.064L148.999 99.8802L149.217 99.6948L149.432 99.507L149.646 99.3168L149.858 99.125L150.068 98.9309L150.276 98.7343L150.483 98.5362L150.688 98.3349L150.803 98.22L151.005 98.0172L151.204 97.8119L151.402 97.6047L151.597 97.3959L151.79 97.1847L151.981 96.9723L152.17 96.7576L152.357 96.5412L152.542 96.3229L152.725 96.1026L152.905 95.8807L153.083 95.6573L153.259 95.4318L153.432 95.2048L153.604 94.9758L153.772 94.7452L153.939 94.513L154.103 94.2792L154.265 94.0435L154.424 93.8057L154.581 93.5672L154.736 93.3267L154.887 93.085L155.037 92.8409L155.184 92.5961L155.329 92.3492L155.471 92.1016L155.61 91.8519L155.748 91.6011L155.882 91.3487L156.014 91.0952L156.143 90.8404L156.27 90.584L156.395 90.3265L156.517 90.0678L156.636 89.8074L156.753 89.5463L156.868 89.2828L156.931 89.1331L157.042 88.8692L157.149 88.6041L157.254 88.3382L157.356 88.0712L157.456 87.8029L157.553 87.5339L157.647 87.2645L157.739 86.9935L157.828 86.7217L157.914 86.4491L157.997 86.1757L158.078 85.9015L158.155 85.6265L158.231 85.3507L158.302 85.0742L158.372 84.7968L158.438 84.5191L158.502 84.2405L158.562 83.9612L158.621 83.681L158.675 83.4009L158.728 83.1196L158.777 82.8383L158.823 82.5566L158.867 82.2741L158.908 81.9908L158.946 81.7075L158.981 81.4238L159.012 81.1397L159.042 80.8552L159.068 80.5707L159.092 80.2854L159.113 80.0001L159.131 79.7149L159.146 79.4292L159.159 79.1435L159.168 78.8574L159.175 78.5714L159.179 78.2849L159.18 78.0036V77.9968L159.179 77.7171Z" fill="#A37F45"/>
</svg>
